<svg xmlns="http://www.w3.org/2000/svg" xmlns:svg="http://www.w3.org/2000/svg" style="clip-rule:evenodd;fill-rule:evenodd;image-rendering:optimizeQuality;shape-rendering:geometricPrecision;text-rendering:geometricPrecision" id="svg2" width="245.669" height="69.949" version="1.1" viewBox="0 0 65 21.355" xml:space="preserve"><metadata id="metadata821"/><defs id="defs4"><style id="style6" type="text/css">.fil31{fill:#0065a7}.fil32{fill:#0065a8}.fil33{fill:#0067a9}.fil34{fill:#0068aa}.fil35{fill:#0069ab}.fil36{fill:#006aac}.fil37{fill:#006bad}.fil38{fill:#006caf}.fil39{fill:#006daf}.fil40{fill:#006fb1}.fil41{fill:#006fb2}.fil42{fill:#0071b3}.fil43{fill:#0072b4}.fil44{fill:#0073b5}.fil45{fill:#0074b6}.fil46{fill:#0075b7}.fil47{fill:#0075b8}.fil48{fill:#0077b9}.fil49{fill:#0078bb}.fil50{fill:#0079bb}.fil51{fill:#007abd}.fil52{fill:#007bbe}.fil53{fill:#007cbf}.fil54{fill:#007dc0}.fil55{fill:#007fc2}.fil56{fill:#0080c3}.fil57{fill:#0081c4}.fil58{fill:#0082c6}.fil59{fill:#0083c7}.fil60{fill:#0085c8}.fil61{fill:#0085c9}.fil62{fill:#0087cb}.fil63{fill:#08c}.fil64{fill:#0089cd}.fil65{fill:#008ace}.fil66{fill:#008bd0}.fil67{fill:#008cd1}.fil68{fill:#008ed3}.fil69{fill:#008ed4}.fil70{fill:#008fd5}.fil71{fill:#0091d7}.fil72{fill:#0092d8}.fil73{fill:#0093da}.fil74{fill:#0094db}.fil75{fill:#0095dd}.fil76{fill:#0096de}.fil77{fill:#0098df}.fil30{fill:#0464a6}.fil29{fill:#0863a5}.fil28{fill:#0d62a4}.fil27{fill:#1160a3}.fil26{fill:#135fa2}.fil25{fill:#165ea1}.fil24{fill:#185da0}.fil23{fill:#1b5c9f}.fil22{fill:#1c5b9e}.fil21{fill:#1e599d}.fil1{fill:#1f1a17}.fil20{fill:#20599c}.fil19{fill:#22579b}.fil18{fill:#23569a}.fil17{fill:#245599}.fil16{fill:#255398}.fil15{fill:#265297}.fil14{fill:#275196}.fil13{fill:#285095}.fil12{fill:#294f94}.fil11{fill:#2a4e93}.fil10{fill:#2b4c92}.fil9{fill:#2e4c91}.fil8{fill:#2f4a90}.fil7{fill:#30498f}.fil5{fill:#31468d}.fil6{fill:#31488e}.fil4{fill:#32458c}.fil2{fill:#33438a}.fil3{fill:#33448b}</style><metadata id="CorelCorpID_0Corel-Layer"/></defs><polygon style="fill:#1f1a17" id="polygon12" points="2.486 3.864 23.518 3.864 23.518 10.101 3.317 10.101 3.317 15.507 2.486 15.507 2.486 9.27 22.687 9.27 22.687 4.696 2.486 4.696" class="fil1" transform="translate(-3.947083,-3.86435)"/><polygon style="fill:#1f1a17" id="polygon14" points="49.798 10.101 49.798 14.675 69.999 14.675 69.999 15.507 69.999 14.633 69.999 15.507 48.966 15.507 48.966 9.27 69.166 9.27 69.166 4.696 48.966 4.696 48.966 3.864 69.999 3.864 69.999 10.101" class="fil1" transform="translate(-3.947083,-3.86435)"/><polygon style="fill:#1f1a17" id="polygon16" points="23.518 14.675 23.518 15.507 35.12 15.507 35.12 4.696 45.849 4.696 45.849 3.864 34.247 3.864 34.247 14.675" class="fil1" transform="translate(-3.947083,-3.86435)"/><polygon style="fill:#33438a" id="polygon18" points="23.518 3.955 2.486 3.955 2.486 3.864 23.518 3.864" class="fil2" transform="translate(-3.947083,-3.86435)"/><polygon style="fill:#33438a" id="polygon20" points="23.518 4.046 2.486 4.046 2.486 3.955 23.518 3.955" class="fil2" transform="translate(-3.947083,-3.86435)"/><polygon style="fill:#33448b" id="polygon22" points="23.518 4.137 2.486 4.137 2.486 4.046 23.518 4.046" class="fil3" transform="translate(-3.947083,-3.86435)"/><polygon style="fill:#32458c" id="polygon24" points="23.518 4.228 2.486 4.228 2.486 4.137 23.518 4.137" class="fil4" transform="translate(-3.947083,-3.86435)"/><polygon style="fill:#32458c" id="polygon26" points="23.518 4.319 2.486 4.319 2.486 4.228 23.518 4.228" class="fil4" transform="translate(-3.947083,-3.86435)"/><polygon style="fill:#31468d" id="polygon28" points="23.518 4.41 2.486 4.41 2.486 4.319 23.518 4.319" class="fil5" transform="translate(-3.947083,-3.86435)"/><polygon style="fill:#31488e" id="polygon30" points="23.518 4.501 2.486 4.501 2.486 4.41 23.518 4.41" class="fil6" transform="translate(-3.947083,-3.86435)"/><polygon style="fill:#31488e" id="polygon32" points="23.518 4.592 2.486 4.592 2.486 4.501 23.518 4.501" class="fil6" transform="translate(-3.947083,-3.86435)"/><polygon style="fill:#30498f" id="polygon34" points="23.518 4.683 2.486 4.683 2.486 4.592 23.518 4.592" class="fil7" transform="translate(-3.947083,-3.86435)"/><polygon style="fill:#30498f" id="polygon36" points="22.687 4.696 2.486 4.696 2.486 4.683 23.518 4.683 23.518 4.774 22.687 4.774" class="fil7" transform="translate(-3.947083,-3.86435)"/><polygon style="fill:#2f4a90" id="polygon38" points="23.518 4.865 22.687 4.865 22.687 4.774 23.518 4.774" class="fil8" transform="translate(-3.947083,-3.86435)"/><polygon style="fill:#2f4a90" id="polygon40" points="23.518 4.956 22.687 4.956 22.687 4.865 23.518 4.865" class="fil8" transform="translate(-3.947083,-3.86435)"/><polygon style="fill:#2e4c91" id="polygon42" points="23.518 5.047 22.687 5.047 22.687 4.956 23.518 4.956" class="fil9" transform="translate(-3.947083,-3.86435)"/><polygon style="fill:#2b4c92" id="polygon44" points="23.518 5.138 22.687 5.138 22.687 5.047 23.518 5.047" class="fil10" transform="translate(-3.947083,-3.86435)"/><polygon style="fill:#2b4c92" id="polygon46" points="23.518 5.229 22.687 5.229 22.687 5.138 23.518 5.138" class="fil10" transform="translate(-3.947083,-3.86435)"/><polygon style="fill:#2a4e93" id="polygon48" points="23.518 5.32 22.687 5.32 22.687 5.229 23.518 5.229" class="fil11" transform="translate(-3.947083,-3.86435)"/><polygon style="fill:#294f94" id="polygon50" points="23.518 5.411 22.687 5.411 22.687 5.32 23.518 5.32" class="fil12" transform="translate(-3.947083,-3.86435)"/><polygon style="fill:#294f94" id="polygon52" points="23.518 5.502 22.687 5.502 22.687 5.411 23.518 5.411" class="fil12" transform="translate(-3.947083,-3.86435)"/><polygon style="fill:#285095" id="polygon54" points="23.518 5.592 22.687 5.592 22.687 5.502 23.518 5.502" class="fil13" transform="translate(-3.947083,-3.86435)"/><polygon style="fill:#285095" id="polygon56" points="23.518 5.684 22.687 5.684 22.687 5.592 23.518 5.592" class="fil13" transform="translate(-3.947083,-3.86435)"/><polygon style="fill:#275196" id="polygon58" points="23.518 5.774 22.687 5.774 22.687 5.684 23.518 5.684" class="fil14" transform="translate(-3.947083,-3.86435)"/><polygon style="fill:#275196" id="polygon60" points="23.518 5.865 22.687 5.865 22.687 5.774 23.518 5.774" class="fil14" transform="translate(-3.947083,-3.86435)"/><polygon style="fill:#265297" id="polygon62" points="23.518 5.956 22.687 5.956 22.687 5.865 23.518 5.865" class="fil15" transform="translate(-3.947083,-3.86435)"/><polygon style="fill:#265297" id="polygon64" points="23.518 6.047 22.687 6.047 22.687 5.956 23.518 5.956" class="fil15" transform="translate(-3.947083,-3.86435)"/><polygon style="fill:#255398" id="polygon66" points="23.518 6.138 22.687 6.138 22.687 6.047 23.518 6.047" class="fil16" transform="translate(-3.947083,-3.86435)"/><polygon style="fill:#245599" id="polygon68" points="23.518 6.229 22.687 6.229 22.687 6.138 23.518 6.138" class="fil17" transform="translate(-3.947083,-3.86435)"/><polygon style="fill:#245599" id="polygon70" points="23.518 6.32 22.687 6.32 22.687 6.229 23.518 6.229" class="fil17" transform="translate(-3.947083,-3.86435)"/><polygon style="fill:#23569a" id="polygon72" points="23.518 6.411 22.687 6.411 22.687 6.32 23.518 6.32" class="fil18" transform="translate(-3.947083,-3.86435)"/><polygon style="fill:#22579b" id="polygon74" points="23.518 6.502 22.687 6.502 22.687 6.411 23.518 6.411" class="fil19" transform="translate(-3.947083,-3.86435)"/><polygon style="fill:#22579b" id="polygon76" points="23.518 6.593 22.687 6.593 22.687 6.502 23.518 6.502" class="fil19" transform="translate(-3.947083,-3.86435)"/><polygon style="fill:#20599c" id="polygon78" points="23.518 6.684 22.687 6.684 22.687 6.593 23.518 6.593" class="fil20" transform="translate(-3.947083,-3.86435)"/><polygon style="fill:#20599c" id="polygon80" points="23.518 6.775 22.687 6.775 22.687 6.684 23.518 6.684" class="fil20" transform="translate(-3.947083,-3.86435)"/><polygon style="fill:#1e599d" id="polygon82" points="23.518 6.866 22.687 6.866 22.687 6.775 23.518 6.775" class="fil21" transform="translate(-3.947083,-3.86435)"/><polygon style="fill:#1e599d" id="polygon84" points="23.518 6.957 22.687 6.957 22.687 6.866 23.518 6.866" class="fil21" transform="translate(-3.947083,-3.86435)"/><polygon style="fill:#1c5b9e" id="polygon86" points="23.518 7.048 22.687 7.048 22.687 6.957 23.518 6.957" class="fil22" transform="translate(-3.947083,-3.86435)"/><polygon style="fill:#1c5b9e" id="polygon88" points="23.518 7.139 22.687 7.139 22.687 7.048 23.518 7.048" class="fil22" transform="translate(-3.947083,-3.86435)"/><polygon style="fill:#1b5c9f" id="polygon90" points="23.518 7.23 22.687 7.23 22.687 7.139 23.518 7.139" class="fil23" transform="translate(-3.947083,-3.86435)"/><polygon style="fill:#185da0" id="polygon92" points="23.518 7.321 22.687 7.321 22.687 7.23 23.518 7.23" class="fil24" transform="translate(-3.947083,-3.86435)"/><polygon style="fill:#185da0" id="polygon94" points="23.518 7.412 22.687 7.412 22.687 7.321 23.518 7.321" class="fil24" transform="translate(-3.947083,-3.86435)"/><polygon style="fill:#165ea1" id="polygon96" points="23.518 7.503 22.687 7.503 22.687 7.412 23.518 7.412" class="fil25" transform="translate(-3.947083,-3.86435)"/><polygon style="fill:#135fa2" id="polygon98" points="23.518 7.594 22.687 7.594 22.687 7.503 23.518 7.503" class="fil26" transform="translate(-3.947083,-3.86435)"/><polygon style="fill:#135fa2" id="polygon100" points="23.518 7.684 22.687 7.684 22.687 7.594 23.518 7.594" class="fil26" transform="translate(-3.947083,-3.86435)"/><polygon style="fill:#1160a3" id="polygon102" points="23.518 7.775 22.687 7.775 22.687 7.684 23.518 7.684" class="fil27" transform="translate(-3.947083,-3.86435)"/><polygon style="fill:#0d62a4" id="polygon104" points="23.518 7.866 22.687 7.866 22.687 7.775 23.518 7.775" class="fil28" transform="translate(-3.947083,-3.86435)"/><polygon style="fill:#0d62a4" id="polygon106" points="23.518 7.957 22.687 7.957 22.687 7.866 23.518 7.866" class="fil28" transform="translate(-3.947083,-3.86435)"/><polygon style="fill:#0863a5" id="polygon108" points="23.518 8.048 22.687 8.048 22.687 7.957 23.518 7.957" class="fil29" transform="translate(-3.947083,-3.86435)"/><polygon style="fill:#0863a5" id="polygon110" points="23.518 8.139 22.687 8.139 22.687 8.048 23.518 8.048" class="fil29" transform="translate(-3.947083,-3.86435)"/><polygon style="fill:#0464a6" id="polygon112" points="23.518 8.23 22.687 8.23 22.687 8.139 23.518 8.139" class="fil30" transform="translate(-3.947083,-3.86435)"/><polygon style="fill:#0464a6" id="polygon114" points="23.518 8.321 22.687 8.321 22.687 8.23 23.518 8.23" class="fil30" transform="translate(-3.947083,-3.86435)"/><polygon style="fill:#0065a7" id="polygon116" points="23.518 8.412 22.687 8.412 22.687 8.321 23.518 8.321" class="fil31" transform="translate(-3.947083,-3.86435)"/><polygon style="fill:#0065a8" id="polygon118" points="23.518 8.503 22.687 8.503 22.687 8.412 23.518 8.412" class="fil32" transform="translate(-3.947083,-3.86435)"/><polygon style="fill:#0065a8" id="polygon120" points="23.518 8.594 22.687 8.594 22.687 8.503 23.518 8.503" class="fil32" transform="translate(-3.947083,-3.86435)"/><polygon style="fill:#0067a9" id="polygon122" points="23.518 8.685 22.687 8.685 22.687 8.594 23.518 8.594" class="fil33" transform="translate(-3.947083,-3.86435)"/><polygon style="fill:#0067a9" id="polygon124" points="23.518 8.776 22.687 8.776 22.687 8.685 23.518 8.685" class="fil33" transform="translate(-3.947083,-3.86435)"/><polygon style="fill:#0068aa" id="polygon126" points="23.518 8.867 22.687 8.867 22.687 8.776 23.518 8.776" class="fil34" transform="translate(-3.947083,-3.86435)"/><polygon style="fill:#0069ab" id="polygon128" points="23.518 8.958 22.687 8.958 22.687 8.867 23.518 8.867" class="fil35" transform="translate(-3.947083,-3.86435)"/><polygon style="fill:#0069ab" id="polygon130" points="23.518 9.049 22.687 9.049 22.687 8.958 23.518 8.958" class="fil35" transform="translate(-3.947083,-3.86435)"/><polygon style="fill:#006aac" id="polygon132" points="23.518 9.14 22.687 9.14 22.687 9.049 23.518 9.049" class="fil36" transform="translate(-3.947083,-3.86435)"/><polygon style="fill:#006aac" id="polygon134" points="23.518 9.231 22.687 9.231 22.687 9.14 23.518 9.14" class="fil36" transform="translate(-3.947083,-3.86435)"/><polygon style="fill:#006bad" id="polygon136" points="2.486 9.27 22.687 9.27 22.687 9.231 23.518 9.231 23.518 9.322 2.486 9.322" class="fil37" transform="translate(-3.947083,-3.86435)"/><polygon style="fill:#006bad" id="polygon138" points="23.518 9.413 2.486 9.413 2.486 9.322 23.518 9.322" class="fil37" transform="translate(-3.947083,-3.86435)"/><polygon style="fill:#006caf" id="polygon140" points="23.518 9.504 2.486 9.504 2.486 9.413 23.518 9.413" class="fil38" transform="translate(-3.947083,-3.86435)"/><polygon style="fill:#006daf" id="polygon142" points="23.518 9.595 2.486 9.595 2.486 9.504 23.518 9.504" class="fil39" transform="translate(-3.947083,-3.86435)"/><polygon style="fill:#006daf" id="polygon144" points="23.518 9.686 2.486 9.686 2.486 9.595 23.518 9.595" class="fil39" transform="translate(-3.947083,-3.86435)"/><polygon style="fill:#006fb1" id="polygon146" points="23.518 9.777 2.486 9.777 2.486 9.686 23.518 9.686" class="fil40" transform="translate(-3.947083,-3.86435)"/><polygon style="fill:#006fb2" id="polygon148" points="23.518 9.867 2.486 9.867 2.486 9.777 23.518 9.777" class="fil41" transform="translate(-3.947083,-3.86435)"/><polygon style="fill:#006fb2" id="polygon150" points="23.518 9.958 2.486 9.958 2.486 9.867 23.518 9.867" class="fil41" transform="translate(-3.947083,-3.86435)"/><polygon style="fill:#0071b3" id="polygon152" points="23.518 10.049 2.486 10.049 2.486 9.958 23.518 9.958" class="fil42" transform="translate(-3.947083,-3.86435)"/><polygon style="fill:#0071b3" id="polygon154" points="3.317 10.14 2.486 10.14 2.486 10.049 23.518 10.049 23.518 10.101 3.317 10.101" class="fil42" transform="translate(-3.947083,-3.86435)"/><polygon style="fill:#0072b4" id="polygon156" points="3.317 10.231 2.486 10.231 2.486 10.14 3.317 10.14" class="fil43" transform="translate(-3.947083,-3.86435)"/><polygon style="fill:#0072b4" id="polygon158" points="3.317 10.322 2.486 10.322 2.486 10.231 3.317 10.231" class="fil43" transform="translate(-3.947083,-3.86435)"/><polygon style="fill:#0073b5" id="polygon160" points="3.317 10.413 2.486 10.413 2.486 10.322 3.317 10.322" class="fil44" transform="translate(-3.947083,-3.86435)"/><polygon style="fill:#0073b5" id="polygon162" points="3.317 10.504 2.486 10.504 2.486 10.413 3.317 10.413" class="fil44" transform="translate(-3.947083,-3.86435)"/><polygon style="fill:#0074b6" id="polygon164" points="3.317 10.595 2.486 10.595 2.486 10.504 3.317 10.504" class="fil45" transform="translate(-3.947083,-3.86435)"/><polygon style="fill:#0075b7" id="polygon166" points="3.317 10.686 2.486 10.686 2.486 10.595 3.317 10.595" class="fil46" transform="translate(-3.947083,-3.86435)"/><polygon style="fill:#0075b7" id="polygon168" points="3.317 10.777 2.486 10.777 2.486 10.686 3.317 10.686" class="fil46" transform="translate(-3.947083,-3.86435)"/><polygon style="fill:#0075b8" id="polygon170" points="3.317 10.868 2.486 10.868 2.486 10.777 3.317 10.777" class="fil47" transform="translate(-3.947083,-3.86435)"/><polygon style="fill:#0077b9" id="polygon172" points="3.317 10.959 2.486 10.959 2.486 10.868 3.317 10.868" class="fil48" transform="translate(-3.947083,-3.86435)"/><polygon style="fill:#0077b9" id="polygon174" points="3.317 11.05 2.486 11.05 2.486 10.959 3.317 10.959" class="fil48" transform="translate(-3.947083,-3.86435)"/><polygon style="fill:#0078bb" id="polygon176" points="3.317 11.141 2.486 11.141 2.486 11.05 3.317 11.05" class="fil49" transform="translate(-3.947083,-3.86435)"/><polygon style="fill:#0078bb" id="polygon178" points="3.317 11.232 2.486 11.232 2.486 11.141 3.317 11.141" class="fil49" transform="translate(-3.947083,-3.86435)"/><polygon style="fill:#0079bb" id="polygon180" points="3.317 11.323 2.486 11.323 2.486 11.232 3.317 11.232" class="fil50" transform="translate(-3.947083,-3.86435)"/><polygon style="fill:#0079bb" id="polygon182" points="3.317 11.414 2.486 11.414 2.486 11.323 3.317 11.323" class="fil50" transform="translate(-3.947083,-3.86435)"/><polygon style="fill:#007abd" id="polygon184" points="3.317 11.505 2.486 11.505 2.486 11.414 3.317 11.414" class="fil51" transform="translate(-3.947083,-3.86435)"/><polygon style="fill:#007bbe" id="polygon186" points="3.317 11.596 2.486 11.596 2.486 11.505 3.317 11.505" class="fil52" transform="translate(-3.947083,-3.86435)"/><polygon style="fill:#007bbe" id="polygon188" points="3.317 11.687 2.486 11.687 2.486 11.596 3.317 11.596" class="fil52" transform="translate(-3.947083,-3.86435)"/><polygon style="fill:#007cbf" id="polygon190" points="3.317 11.777 2.486 11.777 2.486 11.687 3.317 11.687" class="fil53" transform="translate(-3.947083,-3.86435)"/><polygon style="fill:#007cbf" id="polygon192" points="3.317 11.869 2.486 11.869 2.486 11.777 3.317 11.777" class="fil53" transform="translate(-3.947083,-3.86435)"/><polygon style="fill:#007dc0" id="polygon194" points="3.317 11.96 2.486 11.96 2.486 11.869 3.317 11.869" class="fil54" transform="translate(-3.947083,-3.86435)"/><polygon style="fill:#007fc2" id="polygon196" points="3.317 12.05 2.486 12.05 2.486 11.96 3.317 11.96" class="fil55" transform="translate(-3.947083,-3.86435)"/><polygon style="fill:#007fc2" id="polygon198" points="3.317 12.141 2.486 12.141 2.486 12.05 3.317 12.05" class="fil55" transform="translate(-3.947083,-3.86435)"/><polygon style="fill:#0080c3" id="polygon200" points="3.317 12.232 2.486 12.232 2.486 12.141 3.317 12.141" class="fil56" transform="translate(-3.947083,-3.86435)"/><polygon style="fill:#0080c3" id="polygon202" points="3.317 12.323 2.486 12.323 2.486 12.232 3.317 12.232" class="fil56" transform="translate(-3.947083,-3.86435)"/><polygon style="fill:#0081c4" id="polygon204" points="3.317 12.414 2.486 12.414 2.486 12.323 3.317 12.323" class="fil57" transform="translate(-3.947083,-3.86435)"/><polygon style="fill:#0081c4" id="polygon206" points="3.317 12.505 2.486 12.505 2.486 12.414 3.317 12.414" class="fil57" transform="translate(-3.947083,-3.86435)"/><polygon style="fill:#0082c6" id="polygon208" points="3.317 12.596 2.486 12.596 2.486 12.505 3.317 12.505" class="fil58" transform="translate(-3.947083,-3.86435)"/><polygon style="fill:#0083c7" id="polygon210" points="3.317 12.687 2.486 12.687 2.486 12.596 3.317 12.596" class="fil59" transform="translate(-3.947083,-3.86435)"/><polygon style="fill:#0083c7" id="polygon212" points="3.317 12.778 2.486 12.778 2.486 12.687 3.317 12.687" class="fil59" transform="translate(-3.947083,-3.86435)"/><polygon style="fill:#0085c8" id="polygon214" points="3.317 12.869 2.486 12.869 2.486 12.778 3.317 12.778" class="fil60" transform="translate(-3.947083,-3.86435)"/><polygon style="fill:#0085c9" id="polygon216" points="3.317 12.96 2.486 12.96 2.486 12.869 3.317 12.869" class="fil61" transform="translate(-3.947083,-3.86435)"/><polygon style="fill:#0085c9" id="polygon218" points="3.317 13.051 2.486 13.051 2.486 12.96 3.317 12.96" class="fil61" transform="translate(-3.947083,-3.86435)"/><polygon style="fill:#0087cb" id="polygon220" points="3.317 13.142 2.486 13.142 2.486 13.051 3.317 13.051" class="fil62" transform="translate(-3.947083,-3.86435)"/><polygon style="fill:#0087cb" id="polygon222" points="3.317 13.233 2.486 13.233 2.486 13.142 3.317 13.142" class="fil62" transform="translate(-3.947083,-3.86435)"/><polygon style="fill:#08c" id="polygon224" points="3.317 13.324 2.486 13.324 2.486 13.233 3.317 13.233" class="fil63" transform="translate(-3.947083,-3.86435)"/><polygon style="fill:#08c" id="polygon226" points="3.317 13.415 2.486 13.415 2.486 13.324 3.317 13.324" class="fil63" transform="translate(-3.947083,-3.86435)"/><polygon style="fill:#0089cd" id="polygon228" points="3.317 13.506 2.486 13.506 2.486 13.415 3.317 13.415" class="fil64" transform="translate(-3.947083,-3.86435)"/><polygon style="fill:#0089cd" id="polygon230" points="3.317 13.597 2.486 13.597 2.486 13.506 3.317 13.506" class="fil64" transform="translate(-3.947083,-3.86435)"/><polygon style="fill:#008ace" id="polygon232" points="3.317 13.688 2.486 13.688 2.486 13.597 3.317 13.597" class="fil65" transform="translate(-3.947083,-3.86435)"/><polygon style="fill:#008bd0" id="polygon234" points="3.317 13.779 2.486 13.779 2.486 13.688 3.317 13.688" class="fil66" transform="translate(-3.947083,-3.86435)"/><polygon style="fill:#008bd0" id="polygon236" points="3.317 13.87 2.486 13.87 2.486 13.779 3.317 13.779" class="fil66" transform="translate(-3.947083,-3.86435)"/><polygon style="fill:#008cd1" id="polygon238" points="3.317 13.96 2.486 13.96 2.486 13.87 3.317 13.87" class="fil67" transform="translate(-3.947083,-3.86435)"/><polygon style="fill:#008ed3" id="polygon240" points="3.317 14.052 2.486 14.052 2.486 13.96 3.317 13.96" class="fil68" transform="translate(-3.947083,-3.86435)"/><polygon style="fill:#008ed3" id="polygon242" points="3.317 14.143 2.486 14.143 2.486 14.052 3.317 14.052" class="fil68" transform="translate(-3.947083,-3.86435)"/><polygon style="fill:#008ed4" id="polygon244" points="3.317 14.233 2.486 14.233 2.486 14.143 3.317 14.143" class="fil69" transform="translate(-3.947083,-3.86435)"/><polygon style="fill:#008ed4" id="polygon246" points="3.317 14.324 2.486 14.324 2.486 14.233 3.317 14.233" class="fil69" transform="translate(-3.947083,-3.86435)"/><polygon style="fill:#008fd5" id="polygon248" points="3.317 14.415 2.486 14.415 2.486 14.324 3.317 14.324" class="fil70" transform="translate(-3.947083,-3.86435)"/><polygon style="fill:#008fd5" id="polygon250" points="3.317 14.506 2.486 14.506 2.486 14.415 3.317 14.415" class="fil70" transform="translate(-3.947083,-3.86435)"/><polygon style="fill:#0091d7" id="polygon252" points="3.317 14.597 2.486 14.597 2.486 14.506 3.317 14.506" class="fil71" transform="translate(-3.947083,-3.86435)"/><polygon style="fill:#0092d8" id="polygon254" points="3.317 14.688 2.486 14.688 2.486 14.597 3.317 14.597" class="fil72" transform="translate(-3.947083,-3.86435)"/><polygon style="fill:#0092d8" id="polygon256" points="3.317 14.779 2.486 14.779 2.486 14.688 3.317 14.688" class="fil72" transform="translate(-3.947083,-3.86435)"/><polygon style="fill:#0093da" id="polygon258" points="3.317 14.87 2.486 14.87 2.486 14.779 3.317 14.779" class="fil73" transform="translate(-3.947083,-3.86435)"/><polygon style="fill:#0093da" id="polygon260" points="3.317 14.961 2.486 14.961 2.486 14.87 3.317 14.87" class="fil73" transform="translate(-3.947083,-3.86435)"/><polygon style="fill:#0094db" id="polygon262" points="3.317 15.052 2.486 15.052 2.486 14.961 3.317 14.961" class="fil74" transform="translate(-3.947083,-3.86435)"/><polygon style="fill:#0095dd" id="polygon264" points="3.317 15.143 2.486 15.143 2.486 15.052 3.317 15.052" class="fil75" transform="translate(-3.947083,-3.86435)"/><polygon style="fill:#0095dd" id="polygon266" points="3.317 15.234 2.486 15.234 2.486 15.143 3.317 15.143" class="fil75" transform="translate(-3.947083,-3.86435)"/><polygon style="fill:#0096de" id="polygon268" points="3.317 15.325 2.486 15.325 2.486 15.234 3.317 15.234" class="fil76" transform="translate(-3.947083,-3.86435)"/><polygon style="fill:#0096de" id="polygon270" points="3.317 15.416 2.486 15.416 2.486 15.325 3.317 15.325" class="fil76" transform="translate(-3.947083,-3.86435)"/><polygon style="fill:#0098df" id="polygon272" points="3.317 15.507 2.486 15.507 2.486 15.416 3.317 15.416" class="fil77" transform="translate(-3.947083,-3.86435)"/><polygon style="fill:#33438a" id="polygon274" points="48.966 3.864 69.999 3.864" class="fil2" transform="translate(-3.947083,-3.86435)"/><polygon style="fill:#33438a" id="polygon276" points="69.999 3.955 48.966 3.955 48.966 3.864 69.999 3.864" class="fil2" transform="translate(-3.947083,-3.86435)"/><polygon style="fill:#33438a" id="polygon278" points="69.999 4.046 48.966 4.046 48.966 3.955 69.999 3.955" class="fil2" transform="translate(-3.947083,-3.86435)"/><polygon style="fill:#33448b" id="polygon280" points="69.999 4.137 48.966 4.137 48.966 4.046 69.999 4.046" class="fil3" transform="translate(-3.947083,-3.86435)"/><polygon style="fill:#32458c" id="polygon282" points="69.999 4.228 48.966 4.228 48.966 4.137 69.999 4.137" class="fil4" transform="translate(-3.947083,-3.86435)"/><polygon style="fill:#32458c" id="polygon284" points="69.999 4.319 48.966 4.319 48.966 4.228 69.999 4.228" class="fil4" transform="translate(-3.947083,-3.86435)"/><polygon style="fill:#31468d" id="polygon286" points="69.999 4.41 48.966 4.41 48.966 4.319 69.999 4.319" class="fil5" transform="translate(-3.947083,-3.86435)"/><polygon style="fill:#31488e" id="polygon288" points="69.999 4.501 48.966 4.501 48.966 4.41 69.999 4.41" class="fil6" transform="translate(-3.947083,-3.86435)"/><polygon style="fill:#31488e" id="polygon290" points="69.999 4.592 48.966 4.592 48.966 4.501 69.999 4.501" class="fil6" transform="translate(-3.947083,-3.86435)"/><polygon style="fill:#30498f" id="polygon292" points="69.999 4.683 48.966 4.683 48.966 4.592 69.999 4.592" class="fil7" transform="translate(-3.947083,-3.86435)"/><polygon style="fill:#30498f" id="polygon294" points="69.166 4.696 48.966 4.696 48.966 4.683 69.999 4.683 69.999 4.774 69.166 4.774" class="fil7" transform="translate(-3.947083,-3.86435)"/><polygon style="fill:#2f4a90" id="polygon296" points="69.999 4.865 69.166 4.865 69.166 4.774 69.999 4.774" class="fil8" transform="translate(-3.947083,-3.86435)"/><polygon style="fill:#2f4a90" id="polygon298" points="69.999 4.956 69.166 4.956 69.166 4.865 69.999 4.865" class="fil8" transform="translate(-3.947083,-3.86435)"/><polygon style="fill:#2e4c91" id="polygon300" points="69.999 5.047 69.166 5.047 69.166 4.956 69.999 4.956" class="fil9" transform="translate(-3.947083,-3.86435)"/><polygon style="fill:#2b4c92" id="polygon302" points="69.999 5.138 69.166 5.138 69.166 5.047 69.999 5.047" class="fil10" transform="translate(-3.947083,-3.86435)"/><polygon style="fill:#2b4c92" id="polygon304" points="69.999 5.229 69.166 5.229 69.166 5.138 69.999 5.138" class="fil10" transform="translate(-3.947083,-3.86435)"/><polygon style="fill:#2a4e93" id="polygon306" points="69.999 5.32 69.166 5.32 69.166 5.229 69.999 5.229" class="fil11" transform="translate(-3.947083,-3.86435)"/><polygon style="fill:#294f94" id="polygon308" points="69.999 5.411 69.166 5.411 69.166 5.32 69.999 5.32" class="fil12" transform="translate(-3.947083,-3.86435)"/><polygon style="fill:#294f94" id="polygon310" points="69.999 5.502 69.166 5.502 69.166 5.411 69.999 5.411" class="fil12" transform="translate(-3.947083,-3.86435)"/><polygon style="fill:#285095" id="polygon312" points="69.999 5.592 69.166 5.592 69.166 5.502 69.999 5.502" class="fil13" transform="translate(-3.947083,-3.86435)"/><polygon style="fill:#285095" id="polygon314" points="69.999 5.684 69.166 5.684 69.166 5.592 69.999 5.592" class="fil13" transform="translate(-3.947083,-3.86435)"/><polygon style="fill:#275196" id="polygon316" points="69.999 5.774 69.166 5.774 69.166 5.684 69.999 5.684" class="fil14" transform="translate(-3.947083,-3.86435)"/><polygon style="fill:#275196" id="polygon318" points="69.999 5.865 69.166 5.865 69.166 5.774 69.999 5.774" class="fil14" transform="translate(-3.947083,-3.86435)"/><polygon style="fill:#265297" id="polygon320" points="69.999 5.956 69.166 5.956 69.166 5.865 69.999 5.865" class="fil15" transform="translate(-3.947083,-3.86435)"/><polygon style="fill:#265297" id="polygon322" points="69.999 6.047 69.166 6.047 69.166 5.956 69.999 5.956" class="fil15" transform="translate(-3.947083,-3.86435)"/><polygon style="fill:#255398" id="polygon324" points="69.999 6.138 69.166 6.138 69.166 6.047 69.999 6.047" class="fil16" transform="translate(-3.947083,-3.86435)"/><polygon style="fill:#245599" id="polygon326" points="69.999 6.229 69.166 6.229 69.166 6.138 69.999 6.138" class="fil17" transform="translate(-3.947083,-3.86435)"/><polygon style="fill:#245599" id="polygon328" points="69.999 6.32 69.166 6.32 69.166 6.229 69.999 6.229" class="fil17" transform="translate(-3.947083,-3.86435)"/><polygon style="fill:#23569a" id="polygon330" points="69.999 6.411 69.166 6.411 69.166 6.32 69.999 6.32" class="fil18" transform="translate(-3.947083,-3.86435)"/><polygon style="fill:#22579b" id="polygon332" points="69.999 6.502 69.166 6.502 69.166 6.411 69.999 6.411" class="fil19" transform="translate(-3.947083,-3.86435)"/><polygon style="fill:#22579b" id="polygon334" points="69.999 6.593 69.166 6.593 69.166 6.502 69.999 6.502" class="fil19" transform="translate(-3.947083,-3.86435)"/><polygon style="fill:#20599c" id="polygon336" points="69.999 6.684 69.166 6.684 69.166 6.593 69.999 6.593" class="fil20" transform="translate(-3.947083,-3.86435)"/><polygon style="fill:#20599c" id="polygon338" points="69.999 6.775 69.166 6.775 69.166 6.684 69.999 6.684" class="fil20" transform="translate(-3.947083,-3.86435)"/><polygon style="fill:#1e599d" id="polygon340" points="69.999 6.866 69.166 6.866 69.166 6.775 69.999 6.775" class="fil21" transform="translate(-3.947083,-3.86435)"/><polygon style="fill:#1e599d" id="polygon342" points="69.999 6.957 69.166 6.957 69.166 6.866 69.999 6.866" class="fil21" transform="translate(-3.947083,-3.86435)"/><polygon style="fill:#1c5b9e" id="polygon344" points="69.999 7.048 69.166 7.048 69.166 6.957 69.999 6.957" class="fil22" transform="translate(-3.947083,-3.86435)"/><polygon style="fill:#1c5b9e" id="polygon346" points="69.999 7.139 69.166 7.139 69.166 7.048 69.999 7.048" class="fil22" transform="translate(-3.947083,-3.86435)"/><polygon style="fill:#1b5c9f" id="polygon348" points="69.999 7.23 69.166 7.23 69.166 7.139 69.999 7.139" class="fil23" transform="translate(-3.947083,-3.86435)"/><polygon style="fill:#185da0" id="polygon350" points="69.999 7.321 69.166 7.321 69.166 7.23 69.999 7.23" class="fil24" transform="translate(-3.947083,-3.86435)"/><polygon style="fill:#185da0" id="polygon352" points="69.999 7.412 69.166 7.412 69.166 7.321 69.999 7.321" class="fil24" transform="translate(-3.947083,-3.86435)"/><polygon style="fill:#165ea1" id="polygon354" points="69.999 7.503 69.166 7.503 69.166 7.412 69.999 7.412" class="fil25" transform="translate(-3.947083,-3.86435)"/><polygon style="fill:#135fa2" id="polygon356" points="69.999 7.594 69.166 7.594 69.166 7.503 69.999 7.503" class="fil26" transform="translate(-3.947083,-3.86435)"/><polygon style="fill:#135fa2" id="polygon358" points="69.999 7.684 69.166 7.684 69.166 7.594 69.999 7.594" class="fil26" transform="translate(-3.947083,-3.86435)"/><polygon style="fill:#1160a3" id="polygon360" points="69.999 7.775 69.166 7.775 69.166 7.684 69.999 7.684" class="fil27" transform="translate(-3.947083,-3.86435)"/><polygon style="fill:#0d62a4" id="polygon362" points="69.999 7.866 69.166 7.866 69.166 7.775 69.999 7.775" class="fil28" transform="translate(-3.947083,-3.86435)"/><polygon style="fill:#0d62a4" id="polygon364" points="69.999 7.957 69.166 7.957 69.166 7.866 69.999 7.866" class="fil28" transform="translate(-3.947083,-3.86435)"/><polygon style="fill:#0863a5" id="polygon366" points="69.999 8.048 69.166 8.048 69.166 7.957 69.999 7.957" class="fil29" transform="translate(-3.947083,-3.86435)"/><polygon style="fill:#0863a5" id="polygon368" points="69.999 8.139 69.166 8.139 69.166 8.048 69.999 8.048" class="fil29" transform="translate(-3.947083,-3.86435)"/><polygon style="fill:#0464a6" id="polygon370" points="69.999 8.23 69.166 8.23 69.166 8.139 69.999 8.139" class="fil30" transform="translate(-3.947083,-3.86435)"/><polygon style="fill:#0464a6" id="polygon372" points="69.999 8.321 69.166 8.321 69.166 8.23 69.999 8.23" class="fil30" transform="translate(-3.947083,-3.86435)"/><polygon style="fill:#0065a7" id="polygon374" points="69.999 8.412 69.166 8.412 69.166 8.321 69.999 8.321" class="fil31" transform="translate(-3.947083,-3.86435)"/><polygon style="fill:#0065a8" id="polygon376" points="69.999 8.503 69.166 8.503 69.166 8.412 69.999 8.412" class="fil32" transform="translate(-3.947083,-3.86435)"/><polygon style="fill:#0065a8" id="polygon378" points="69.999 8.594 69.166 8.594 69.166 8.503 69.999 8.503" class="fil32" transform="translate(-3.947083,-3.86435)"/><polygon style="fill:#0067a9" id="polygon380" points="69.999 8.685 69.166 8.685 69.166 8.594 69.999 8.594" class="fil33" transform="translate(-3.947083,-3.86435)"/><polygon style="fill:#0067a9" id="polygon382" points="69.999 8.776 69.166 8.776 69.166 8.685 69.999 8.685" class="fil33" transform="translate(-3.947083,-3.86435)"/><polygon style="fill:#0068aa" id="polygon384" points="69.999 8.867 69.166 8.867 69.166 8.776 69.999 8.776" class="fil34" transform="translate(-3.947083,-3.86435)"/><polygon style="fill:#0069ab" id="polygon386" points="69.999 8.958 69.166 8.958 69.166 8.867 69.999 8.867" class="fil35" transform="translate(-3.947083,-3.86435)"/><polygon style="fill:#0069ab" id="polygon388" points="69.999 9.049 69.166 9.049 69.166 8.958 69.999 8.958" class="fil35" transform="translate(-3.947083,-3.86435)"/><polygon style="fill:#006aac" id="polygon390" points="69.999 9.14 69.166 9.14 69.166 9.049 69.999 9.049" class="fil36" transform="translate(-3.947083,-3.86435)"/><polygon style="fill:#006aac" id="polygon392" points="69.999 9.231 69.166 9.231 69.166 9.14 69.999 9.14" class="fil36" transform="translate(-3.947083,-3.86435)"/><polygon style="fill:#006bad" id="polygon394" points="48.966 9.27 69.166 9.27 69.166 9.231 69.999 9.231 69.999 9.322 48.966 9.322" class="fil37" transform="translate(-3.947083,-3.86435)"/><polygon style="fill:#006bad" id="polygon396" points="69.999 9.413 48.966 9.413 48.966 9.322 69.999 9.322" class="fil37" transform="translate(-3.947083,-3.86435)"/><polygon style="fill:#006caf" id="polygon398" points="69.999 9.504 48.966 9.504 48.966 9.413 69.999 9.413" class="fil38" transform="translate(-3.947083,-3.86435)"/><polygon style="fill:#006daf" id="polygon400" points="69.999 9.595 48.966 9.595 48.966 9.504 69.999 9.504" class="fil39" transform="translate(-3.947083,-3.86435)"/><polygon style="fill:#006daf" id="polygon402" points="69.999 9.686 48.966 9.686 48.966 9.595 69.999 9.595" class="fil39" transform="translate(-3.947083,-3.86435)"/><polygon style="fill:#006fb1" id="polygon404" points="69.999 9.777 48.966 9.777 48.966 9.686 69.999 9.686" class="fil40" transform="translate(-3.947083,-3.86435)"/><polygon style="fill:#006fb2" id="polygon406" points="69.999 9.867 48.966 9.867 48.966 9.777 69.999 9.777" class="fil41" transform="translate(-3.947083,-3.86435)"/><polygon style="fill:#006fb2" id="polygon408" points="69.999 9.958 48.966 9.958 48.966 9.867 69.999 9.867" class="fil41" transform="translate(-3.947083,-3.86435)"/><polygon style="fill:#0071b3" id="polygon410" points="69.999 10.049 48.966 10.049 48.966 9.958 69.999 9.958" class="fil42" transform="translate(-3.947083,-3.86435)"/><polygon style="fill:#0071b3" id="polygon412" points="49.798 10.14 48.966 10.14 48.966 10.049 69.999 10.049 69.999 10.101 49.798 10.101" class="fil42" transform="translate(-3.947083,-3.86435)"/><polygon style="fill:#0072b4" id="polygon414" points="49.798 10.231 48.966 10.231 48.966 10.14 49.798 10.14" class="fil43" transform="translate(-3.947083,-3.86435)"/><polygon style="fill:#0072b4" id="polygon416" points="49.798 10.322 48.966 10.322 48.966 10.231 49.798 10.231" class="fil43" transform="translate(-3.947083,-3.86435)"/><polygon style="fill:#0073b5" id="polygon418" points="49.798 10.413 48.966 10.413 48.966 10.322 49.798 10.322" class="fil44" transform="translate(-3.947083,-3.86435)"/><polygon style="fill:#0073b5" id="polygon420" points="49.798 10.504 48.966 10.504 48.966 10.413 49.798 10.413" class="fil44" transform="translate(-3.947083,-3.86435)"/><polygon style="fill:#0074b6" id="polygon422" points="49.798 10.595 48.966 10.595 48.966 10.504 49.798 10.504" class="fil45" transform="translate(-3.947083,-3.86435)"/><polygon style="fill:#0075b7" id="polygon424" points="49.798 10.686 48.966 10.686 48.966 10.595 49.798 10.595" class="fil46" transform="translate(-3.947083,-3.86435)"/><polygon style="fill:#0075b7" id="polygon426" points="49.798 10.777 48.966 10.777 48.966 10.686 49.798 10.686" class="fil46" transform="translate(-3.947083,-3.86435)"/><polygon style="fill:#0075b8" id="polygon428" points="49.798 10.868 48.966 10.868 48.966 10.777 49.798 10.777" class="fil47" transform="translate(-3.947083,-3.86435)"/><polygon style="fill:#0077b9" id="polygon430" points="49.798 10.959 48.966 10.959 48.966 10.868 49.798 10.868" class="fil48" transform="translate(-3.947083,-3.86435)"/><polygon style="fill:#0077b9" id="polygon432" points="49.798 11.05 48.966 11.05 48.966 10.959 49.798 10.959" class="fil48" transform="translate(-3.947083,-3.86435)"/><polygon style="fill:#0078bb" id="polygon434" points="49.798 11.141 48.966 11.141 48.966 11.05 49.798 11.05" class="fil49" transform="translate(-3.947083,-3.86435)"/><polygon style="fill:#0078bb" id="polygon436" points="49.798 11.232 48.966 11.232 48.966 11.141 49.798 11.141" class="fil49" transform="translate(-3.947083,-3.86435)"/><polygon style="fill:#0079bb" id="polygon438" points="49.798 11.323 48.966 11.323 48.966 11.232 49.798 11.232" class="fil50" transform="translate(-3.947083,-3.86435)"/><polygon style="fill:#0079bb" id="polygon440" points="49.798 11.414 48.966 11.414 48.966 11.323 49.798 11.323" class="fil50" transform="translate(-3.947083,-3.86435)"/><polygon style="fill:#007abd" id="polygon442" points="49.798 11.505 48.966 11.505 48.966 11.414 49.798 11.414" class="fil51" transform="translate(-3.947083,-3.86435)"/><polygon style="fill:#007bbe" id="polygon444" points="49.798 11.596 48.966 11.596 48.966 11.505 49.798 11.505" class="fil52" transform="translate(-3.947083,-3.86435)"/><polygon style="fill:#007bbe" id="polygon446" points="49.798 11.687 48.966 11.687 48.966 11.596 49.798 11.596" class="fil52" transform="translate(-3.947083,-3.86435)"/><polygon style="fill:#007cbf" id="polygon448" points="49.798 11.777 48.966 11.777 48.966 11.687 49.798 11.687" class="fil53" transform="translate(-3.947083,-3.86435)"/><polygon style="fill:#007cbf" id="polygon450" points="49.798 11.869 48.966 11.869 48.966 11.777 49.798 11.777" class="fil53" transform="translate(-3.947083,-3.86435)"/><polygon style="fill:#007dc0" id="polygon452" points="49.798 11.96 48.966 11.96 48.966 11.869 49.798 11.869" class="fil54" transform="translate(-3.947083,-3.86435)"/><polygon style="fill:#007fc2" id="polygon454" points="49.798 12.05 48.966 12.05 48.966 11.96 49.798 11.96" class="fil55" transform="translate(-3.947083,-3.86435)"/><polygon style="fill:#007fc2" id="polygon456" points="49.798 12.141 48.966 12.141 48.966 12.05 49.798 12.05" class="fil55" transform="translate(-3.947083,-3.86435)"/><polygon style="fill:#0080c3" id="polygon458" points="49.798 12.232 48.966 12.232 48.966 12.141 49.798 12.141" class="fil56" transform="translate(-3.947083,-3.86435)"/><polygon style="fill:#0080c3" id="polygon460" points="49.798 12.323 48.966 12.323 48.966 12.232 49.798 12.232" class="fil56" transform="translate(-3.947083,-3.86435)"/><polygon style="fill:#0081c4" id="polygon462" points="49.798 12.414 48.966 12.414 48.966 12.323 49.798 12.323" class="fil57" transform="translate(-3.947083,-3.86435)"/><polygon style="fill:#0081c4" id="polygon464" points="49.798 12.505 48.966 12.505 48.966 12.414 49.798 12.414" class="fil57" transform="translate(-3.947083,-3.86435)"/><polygon style="fill:#0082c6" id="polygon466" points="49.798 12.596 48.966 12.596 48.966 12.505 49.798 12.505" class="fil58" transform="translate(-3.947083,-3.86435)"/><polygon style="fill:#0083c7" id="polygon468" points="49.798 12.687 48.966 12.687 48.966 12.596 49.798 12.596" class="fil59" transform="translate(-3.947083,-3.86435)"/><polygon style="fill:#0083c7" id="polygon470" points="49.798 12.778 48.966 12.778 48.966 12.687 49.798 12.687" class="fil59" transform="translate(-3.947083,-3.86435)"/><polygon style="fill:#0085c8" id="polygon472" points="49.798 12.869 48.966 12.869 48.966 12.778 49.798 12.778" class="fil60" transform="translate(-3.947083,-3.86435)"/><polygon style="fill:#0085c9" id="polygon474" points="49.798 12.96 48.966 12.96 48.966 12.869 49.798 12.869" class="fil61" transform="translate(-3.947083,-3.86435)"/><polygon style="fill:#0085c9" id="polygon476" points="49.798 13.051 48.966 13.051 48.966 12.96 49.798 12.96" class="fil61" transform="translate(-3.947083,-3.86435)"/><polygon style="fill:#0087cb" id="polygon478" points="49.798 13.142 48.966 13.142 48.966 13.051 49.798 13.051" class="fil62" transform="translate(-3.947083,-3.86435)"/><polygon style="fill:#0087cb" id="polygon480" points="49.798 13.233 48.966 13.233 48.966 13.142 49.798 13.142" class="fil62" transform="translate(-3.947083,-3.86435)"/><polygon style="fill:#08c" id="polygon482" points="49.798 13.324 48.966 13.324 48.966 13.233 49.798 13.233" class="fil63" transform="translate(-3.947083,-3.86435)"/><polygon style="fill:#08c" id="polygon484" points="49.798 13.415 48.966 13.415 48.966 13.324 49.798 13.324" class="fil63" transform="translate(-3.947083,-3.86435)"/><polygon style="fill:#0089cd" id="polygon486" points="49.798 13.506 48.966 13.506 48.966 13.415 49.798 13.415" class="fil64" transform="translate(-3.947083,-3.86435)"/><polygon style="fill:#0089cd" id="polygon488" points="49.798 13.597 48.966 13.597 48.966 13.506 49.798 13.506" class="fil64" transform="translate(-3.947083,-3.86435)"/><polygon style="fill:#008ace" id="polygon490" points="49.798 13.688 48.966 13.688 48.966 13.597 49.798 13.597" class="fil65" transform="translate(-3.947083,-3.86435)"/><polygon style="fill:#008bd0" id="polygon492" points="49.798 13.779 48.966 13.779 48.966 13.688 49.798 13.688" class="fil66" transform="translate(-3.947083,-3.86435)"/><polygon style="fill:#008bd0" id="polygon494" points="49.798 13.87 48.966 13.87 48.966 13.779 49.798 13.779" class="fil66" transform="translate(-3.947083,-3.86435)"/><polygon style="fill:#008cd1" id="polygon496" points="49.798 13.96 48.966 13.96 48.966 13.87 49.798 13.87" class="fil67" transform="translate(-3.947083,-3.86435)"/><polygon style="fill:#008ed3" id="polygon498" points="49.798 14.052 48.966 14.052 48.966 13.96 49.798 13.96" class="fil68" transform="translate(-3.947083,-3.86435)"/><polygon style="fill:#008ed3" id="polygon500" points="49.798 14.143 48.966 14.143 48.966 14.052 49.798 14.052" class="fil68" transform="translate(-3.947083,-3.86435)"/><polygon style="fill:#008ed4" id="polygon502" points="49.798 14.233 48.966 14.233 48.966 14.143 49.798 14.143" class="fil69" transform="translate(-3.947083,-3.86435)"/><polygon style="fill:#008ed4" id="polygon504" points="49.798 14.324 48.966 14.324 48.966 14.233 49.798 14.233" class="fil69" transform="translate(-3.947083,-3.86435)"/><polygon style="fill:#008fd5" id="polygon506" points="49.798 14.415 48.966 14.415 48.966 14.324 49.798 14.324" class="fil70" transform="translate(-3.947083,-3.86435)"/><polygon style="fill:#008fd5" id="polygon508" points="49.798 14.506 48.966 14.506 48.966 14.415 49.798 14.415" class="fil70" transform="translate(-3.947083,-3.86435)"/><polygon style="fill:#0091d7" id="polygon510" points="49.798 14.597 48.966 14.597 48.966 14.506 49.798 14.506" class="fil71" transform="translate(-3.947083,-3.86435)"/><path style="fill:#0092d8" id="path512" d="m 45.018917,10.73285 h 0.832038 v 0.07754 h 20.2007 v 0.0135 h -21.0328 v -0.09104 z m 21.0328,0.03588 v 0.04165" class="fil72"/><polygon style="fill:#0092d8" id="polygon514" points="69.999 14.779 48.966 14.779 48.966 14.688 69.999 14.688" class="fil72" transform="translate(-3.947083,-3.86435)"/><polygon style="fill:#0093da" id="polygon516" points="69.999 14.87 48.966 14.87 48.966 14.779 69.999 14.779" class="fil73" transform="translate(-3.947083,-3.86435)"/><polygon style="fill:#0093da" id="polygon518" points="69.999 14.961 48.966 14.961 48.966 14.87 69.999 14.87" class="fil73" transform="translate(-3.947083,-3.86435)"/><polygon style="fill:#0094db" id="polygon520" points="69.999 15.052 48.966 15.052 48.966 14.961 69.999 14.961" class="fil74" transform="translate(-3.947083,-3.86435)"/><polygon style="fill:#0095dd" id="polygon522" points="69.999 15.143 48.966 15.143 48.966 15.052 69.999 15.052" class="fil75" transform="translate(-3.947083,-3.86435)"/><polygon style="fill:#0095dd" id="polygon524" points="69.999 15.234 48.966 15.234 48.966 15.143 69.999 15.143" class="fil75" transform="translate(-3.947083,-3.86435)"/><polygon style="fill:#0096de" id="polygon526" points="69.999 15.325 48.966 15.325 48.966 15.234 69.999 15.234" class="fil76" transform="translate(-3.947083,-3.86435)"/><polygon style="fill:#0096de" id="polygon528" points="69.999 15.416 48.966 15.416 48.966 15.325 69.999 15.325" class="fil76" transform="translate(-3.947083,-3.86435)"/><polygon style="fill:#0098df" id="polygon530" points="69.999 15.507 48.966 15.507 48.966 15.416 69.999 15.416" class="fil77" transform="translate(-3.947083,-3.86435)"/><polygon style="fill:#33438a" id="polygon532" points="45.849 3.955 34.247 3.955 34.247 3.864 45.849 3.864" class="fil2" transform="translate(-3.947083,-3.86435)"/><polygon style="fill:#33438a" id="polygon534" points="45.849 4.046 34.247 4.046 34.247 3.955 45.849 3.955" class="fil2" transform="translate(-3.947083,-3.86435)"/><polygon style="fill:#33448b" id="polygon536" points="45.849 4.137 34.247 4.137 34.247 4.046 45.849 4.046" class="fil3" transform="translate(-3.947083,-3.86435)"/><polygon style="fill:#32458c" id="polygon538" points="45.849 4.228 34.247 4.228 34.247 4.137 45.849 4.137" class="fil4" transform="translate(-3.947083,-3.86435)"/><polygon style="fill:#32458c" id="polygon540" points="45.849 4.319 34.247 4.319 34.247 4.228 45.849 4.228" class="fil4" transform="translate(-3.947083,-3.86435)"/><polygon style="fill:#31468d" id="polygon542" points="45.849 4.41 34.247 4.41 34.247 4.319 45.849 4.319" class="fil5" transform="translate(-3.947083,-3.86435)"/><polygon style="fill:#31488e" id="polygon544" points="45.849 4.501 34.247 4.501 34.247 4.41 45.849 4.41" class="fil6" transform="translate(-3.947083,-3.86435)"/><polygon style="fill:#31488e" id="polygon546" points="45.849 4.592 34.247 4.592 34.247 4.501 45.849 4.501" class="fil6" transform="translate(-3.947083,-3.86435)"/><polygon style="fill:#30498f" id="polygon548" points="45.849 4.683 34.247 4.683 34.247 4.592 45.849 4.592" class="fil7" transform="translate(-3.947083,-3.86435)"/><polygon style="fill:#30498f" id="polygon550" points="35.12 4.774 34.247 4.774 34.247 4.683 45.849 4.683 45.849 4.696 35.12 4.696" class="fil7" transform="translate(-3.947083,-3.86435)"/><polygon style="fill:#2f4a90" id="polygon552" points="35.12 4.865 34.247 4.865 34.247 4.774 35.12 4.774" class="fil8" transform="translate(-3.947083,-3.86435)"/><polygon style="fill:#2f4a90" id="polygon554" points="35.12 4.956 34.247 4.956 34.247 4.865 35.12 4.865" class="fil8" transform="translate(-3.947083,-3.86435)"/><polygon style="fill:#2e4c91" id="polygon556" points="35.12 5.047 34.247 5.047 34.247 4.956 35.12 4.956" class="fil9" transform="translate(-3.947083,-3.86435)"/><polygon style="fill:#2b4c92" id="polygon558" points="35.12 5.138 34.247 5.138 34.247 5.047 35.12 5.047" class="fil10" transform="translate(-3.947083,-3.86435)"/><polygon style="fill:#2b4c92" id="polygon560" points="35.12 5.229 34.247 5.229 34.247 5.138 35.12 5.138" class="fil10" transform="translate(-3.947083,-3.86435)"/><polygon style="fill:#2a4e93" id="polygon562" points="35.12 5.32 34.247 5.32 34.247 5.229 35.12 5.229" class="fil11" transform="translate(-3.947083,-3.86435)"/><polygon style="fill:#294f94" id="polygon564" points="35.12 5.411 34.247 5.411 34.247 5.32 35.12 5.32" class="fil12" transform="translate(-3.947083,-3.86435)"/><polygon style="fill:#294f94" id="polygon566" points="35.12 5.502 34.247 5.502 34.247 5.411 35.12 5.411" class="fil12" transform="translate(-3.947083,-3.86435)"/><polygon style="fill:#285095" id="polygon568" points="35.12 5.592 34.247 5.592 34.247 5.502 35.12 5.502" class="fil13" transform="translate(-3.947083,-3.86435)"/><polygon style="fill:#285095" id="polygon570" points="35.12 5.684 34.247 5.684 34.247 5.592 35.12 5.592" class="fil13" transform="translate(-3.947083,-3.86435)"/><polygon style="fill:#275196" id="polygon572" points="35.12 5.774 34.247 5.774 34.247 5.684 35.12 5.684" class="fil14" transform="translate(-3.947083,-3.86435)"/><polygon style="fill:#275196" id="polygon574" points="35.12 5.865 34.247 5.865 34.247 5.774 35.12 5.774" class="fil14" transform="translate(-3.947083,-3.86435)"/><polygon style="fill:#265297" id="polygon576" points="35.12 5.956 34.247 5.956 34.247 5.865 35.12 5.865" class="fil15" transform="translate(-3.947083,-3.86435)"/><polygon style="fill:#265297" id="polygon578" points="35.12 6.047 34.247 6.047 34.247 5.956 35.12 5.956" class="fil15" transform="translate(-3.947083,-3.86435)"/><polygon style="fill:#255398" id="polygon580" points="35.12 6.138 34.247 6.138 34.247 6.047 35.12 6.047" class="fil16" transform="translate(-3.947083,-3.86435)"/><polygon style="fill:#245599" id="polygon582" points="35.12 6.229 34.247 6.229 34.247 6.138 35.12 6.138" class="fil17" transform="translate(-3.947083,-3.86435)"/><polygon style="fill:#245599" id="polygon584" points="35.12 6.32 34.247 6.32 34.247 6.229 35.12 6.229" class="fil17" transform="translate(-3.947083,-3.86435)"/><polygon style="fill:#23569a" id="polygon586" points="35.12 6.411 34.247 6.411 34.247 6.32 35.12 6.32" class="fil18" transform="translate(-3.947083,-3.86435)"/><polygon style="fill:#22579b" id="polygon588" points="35.12 6.502 34.247 6.502 34.247 6.411 35.12 6.411" class="fil19" transform="translate(-3.947083,-3.86435)"/><polygon style="fill:#22579b" id="polygon590" points="35.12 6.593 34.247 6.593 34.247 6.502 35.12 6.502" class="fil19" transform="translate(-3.947083,-3.86435)"/><polygon style="fill:#20599c" id="polygon592" points="35.12 6.684 34.247 6.684 34.247 6.593 35.12 6.593" class="fil20" transform="translate(-3.947083,-3.86435)"/><polygon style="fill:#20599c" id="polygon594" points="35.12 6.775 34.247 6.775 34.247 6.684 35.12 6.684" class="fil20" transform="translate(-3.947083,-3.86435)"/><polygon style="fill:#1e599d" id="polygon596" points="35.12 6.866 34.247 6.866 34.247 6.775 35.12 6.775" class="fil21" transform="translate(-3.947083,-3.86435)"/><polygon style="fill:#1e599d" id="polygon598" points="35.12 6.957 34.247 6.957 34.247 6.866 35.12 6.866" class="fil21" transform="translate(-3.947083,-3.86435)"/><polygon style="fill:#1c5b9e" id="polygon600" points="35.12 7.048 34.247 7.048 34.247 6.957 35.12 6.957" class="fil22" transform="translate(-3.947083,-3.86435)"/><polygon style="fill:#1c5b9e" id="polygon602" points="35.12 7.139 34.247 7.139 34.247 7.048 35.12 7.048" class="fil22" transform="translate(-3.947083,-3.86435)"/><polygon style="fill:#1b5c9f" id="polygon604" points="35.12 7.23 34.247 7.23 34.247 7.139 35.12 7.139" class="fil23" transform="translate(-3.947083,-3.86435)"/><polygon style="fill:#185da0" id="polygon606" points="35.12 7.321 34.247 7.321 34.247 7.23 35.12 7.23" class="fil24" transform="translate(-3.947083,-3.86435)"/><polygon style="fill:#185da0" id="polygon608" points="35.12 7.412 34.247 7.412 34.247 7.321 35.12 7.321" class="fil24" transform="translate(-3.947083,-3.86435)"/><polygon style="fill:#165ea1" id="polygon610" points="35.12 7.503 34.247 7.503 34.247 7.412 35.12 7.412" class="fil25" transform="translate(-3.947083,-3.86435)"/><polygon style="fill:#135fa2" id="polygon612" points="35.12 7.594 34.247 7.594 34.247 7.503 35.12 7.503" class="fil26" transform="translate(-3.947083,-3.86435)"/><polygon style="fill:#135fa2" id="polygon614" points="35.12 7.684 34.247 7.684 34.247 7.594 35.12 7.594" class="fil26" transform="translate(-3.947083,-3.86435)"/><polygon style="fill:#1160a3" id="polygon616" points="35.12 7.775 34.247 7.775 34.247 7.684 35.12 7.684" class="fil27" transform="translate(-3.947083,-3.86435)"/><polygon style="fill:#0d62a4" id="polygon618" points="35.12 7.866 34.247 7.866 34.247 7.775 35.12 7.775" class="fil28" transform="translate(-3.947083,-3.86435)"/><polygon style="fill:#0d62a4" id="polygon620" points="35.12 7.957 34.247 7.957 34.247 7.866 35.12 7.866" class="fil28" transform="translate(-3.947083,-3.86435)"/><polygon style="fill:#0863a5" id="polygon622" points="35.12 8.048 34.247 8.048 34.247 7.957 35.12 7.957" class="fil29" transform="translate(-3.947083,-3.86435)"/><polygon style="fill:#0863a5" id="polygon624" points="35.12 8.139 34.247 8.139 34.247 8.048 35.12 8.048" class="fil29" transform="translate(-3.947083,-3.86435)"/><polygon style="fill:#0464a6" id="polygon626" points="35.12 8.23 34.247 8.23 34.247 8.139 35.12 8.139" class="fil30" transform="translate(-3.947083,-3.86435)"/><polygon style="fill:#0464a6" id="polygon628" points="35.12 8.321 34.247 8.321 34.247 8.23 35.12 8.23" class="fil30" transform="translate(-3.947083,-3.86435)"/><polygon style="fill:#0065a7" id="polygon630" points="35.12 8.412 34.247 8.412 34.247 8.321 35.12 8.321" class="fil31" transform="translate(-3.947083,-3.86435)"/><polygon style="fill:#0065a8" id="polygon632" points="35.12 8.503 34.247 8.503 34.247 8.412 35.12 8.412" class="fil32" transform="translate(-3.947083,-3.86435)"/><polygon style="fill:#0065a8" id="polygon634" points="35.12 8.594 34.247 8.594 34.247 8.503 35.12 8.503" class="fil32" transform="translate(-3.947083,-3.86435)"/><polygon style="fill:#0067a9" id="polygon636" points="35.12 8.685 34.247 8.685 34.247 8.594 35.12 8.594" class="fil33" transform="translate(-3.947083,-3.86435)"/><polygon style="fill:#0067a9" id="polygon638" points="35.12 8.776 34.247 8.776 34.247 8.685 35.12 8.685" class="fil33" transform="translate(-3.947083,-3.86435)"/><polygon style="fill:#0068aa" id="polygon640" points="35.12 8.867 34.247 8.867 34.247 8.776 35.12 8.776" class="fil34" transform="translate(-3.947083,-3.86435)"/><polygon style="fill:#0069ab" id="polygon642" points="35.12 8.958 34.247 8.958 34.247 8.867 35.12 8.867" class="fil35" transform="translate(-3.947083,-3.86435)"/><polygon style="fill:#0069ab" id="polygon644" points="35.12 9.049 34.247 9.049 34.247 8.958 35.12 8.958" class="fil35" transform="translate(-3.947083,-3.86435)"/><polygon style="fill:#006aac" id="polygon646" points="35.12 9.14 34.247 9.14 34.247 9.049 35.12 9.049" class="fil36" transform="translate(-3.947083,-3.86435)"/><polygon style="fill:#006aac" id="polygon648" points="35.12 9.231 34.247 9.231 34.247 9.14 35.12 9.14" class="fil36" transform="translate(-3.947083,-3.86435)"/><polygon style="fill:#006bad" id="polygon650" points="35.12 9.322 34.247 9.322 34.247 9.231 35.12 9.231" class="fil37" transform="translate(-3.947083,-3.86435)"/><polygon style="fill:#006bad" id="polygon652" points="35.12 9.413 34.247 9.413 34.247 9.322 35.12 9.322" class="fil37" transform="translate(-3.947083,-3.86435)"/><polygon style="fill:#006caf" id="polygon654" points="35.12 9.504 34.247 9.504 34.247 9.413 35.12 9.413" class="fil38" transform="translate(-3.947083,-3.86435)"/><polygon style="fill:#006daf" id="polygon656" points="35.12 9.595 34.247 9.595 34.247 9.504 35.12 9.504" class="fil39" transform="translate(-3.947083,-3.86435)"/><polygon style="fill:#006daf" id="polygon658" points="35.12 9.686 34.247 9.686 34.247 9.595 35.12 9.595" class="fil39" transform="translate(-3.947083,-3.86435)"/><polygon style="fill:#006fb1" id="polygon660" points="35.12 9.777 34.247 9.777 34.247 9.686 35.12 9.686" class="fil40" transform="translate(-3.947083,-3.86435)"/><polygon style="fill:#006fb2" id="polygon662" points="35.12 9.867 34.247 9.867 34.247 9.777 35.12 9.777" class="fil41" transform="translate(-3.947083,-3.86435)"/><polygon style="fill:#006fb2" id="polygon664" points="35.12 9.958 34.247 9.958 34.247 9.867 35.12 9.867" class="fil41" transform="translate(-3.947083,-3.86435)"/><polygon style="fill:#0071b3" id="polygon666" points="35.12 10.049 34.247 10.049 34.247 9.958 35.12 9.958" class="fil42" transform="translate(-3.947083,-3.86435)"/><polygon style="fill:#0071b3" id="polygon668" points="35.12 10.14 34.247 10.14 34.247 10.049 35.12 10.049" class="fil42" transform="translate(-3.947083,-3.86435)"/><polygon style="fill:#0072b4" id="polygon670" points="35.12 10.231 34.247 10.231 34.247 10.14 35.12 10.14" class="fil43" transform="translate(-3.947083,-3.86435)"/><polygon style="fill:#0072b4" id="polygon672" points="35.12 10.322 34.247 10.322 34.247 10.231 35.12 10.231" class="fil43" transform="translate(-3.947083,-3.86435)"/><polygon style="fill:#0073b5" id="polygon674" points="35.12 10.413 34.247 10.413 34.247 10.322 35.12 10.322" class="fil44" transform="translate(-3.947083,-3.86435)"/><polygon style="fill:#0073b5" id="polygon676" points="35.12 10.504 34.247 10.504 34.247 10.413 35.12 10.413" class="fil44" transform="translate(-3.947083,-3.86435)"/><polygon style="fill:#0074b6" id="polygon678" points="35.12 10.595 34.247 10.595 34.247 10.504 35.12 10.504" class="fil45" transform="translate(-3.947083,-3.86435)"/><polygon style="fill:#0075b7" id="polygon680" points="35.12 10.686 34.247 10.686 34.247 10.595 35.12 10.595" class="fil46" transform="translate(-3.947083,-3.86435)"/><polygon style="fill:#0075b7" id="polygon682" points="35.12 10.777 34.247 10.777 34.247 10.686 35.12 10.686" class="fil46" transform="translate(-3.947083,-3.86435)"/><polygon style="fill:#0075b8" id="polygon684" points="35.12 10.868 34.247 10.868 34.247 10.777 35.12 10.777" class="fil47" transform="translate(-3.947083,-3.86435)"/><polygon style="fill:#0077b9" id="polygon686" points="35.12 10.959 34.247 10.959 34.247 10.868 35.12 10.868" class="fil48" transform="translate(-3.947083,-3.86435)"/><polygon style="fill:#0077b9" id="polygon688" points="35.12 11.05 34.247 11.05 34.247 10.959 35.12 10.959" class="fil48" transform="translate(-3.947083,-3.86435)"/><polygon style="fill:#0078bb" id="polygon690" points="35.12 11.141 34.247 11.141 34.247 11.05 35.12 11.05" class="fil49" transform="translate(-3.947083,-3.86435)"/><polygon style="fill:#0078bb" id="polygon692" points="35.12 11.232 34.247 11.232 34.247 11.141 35.12 11.141" class="fil49" transform="translate(-3.947083,-3.86435)"/><polygon style="fill:#0079bb" id="polygon694" points="35.12 11.323 34.247 11.323 34.247 11.232 35.12 11.232" class="fil50" transform="translate(-3.947083,-3.86435)"/><polygon style="fill:#0079bb" id="polygon696" points="35.12 11.414 34.247 11.414 34.247 11.323 35.12 11.323" class="fil50" transform="translate(-3.947083,-3.86435)"/><polygon style="fill:#007abd" id="polygon698" points="35.12 11.505 34.247 11.505 34.247 11.414 35.12 11.414" class="fil51" transform="translate(-3.947083,-3.86435)"/><polygon style="fill:#007bbe" id="polygon700" points="35.12 11.596 34.247 11.596 34.247 11.505 35.12 11.505" class="fil52" transform="translate(-3.947083,-3.86435)"/><polygon style="fill:#007bbe" id="polygon702" points="35.12 11.687 34.247 11.687 34.247 11.596 35.12 11.596" class="fil52" transform="translate(-3.947083,-3.86435)"/><polygon style="fill:#007cbf" id="polygon704" points="35.12 11.777 34.247 11.777 34.247 11.687 35.12 11.687" class="fil53" transform="translate(-3.947083,-3.86435)"/><polygon style="fill:#007cbf" id="polygon706" points="35.12 11.869 34.247 11.869 34.247 11.777 35.12 11.777" class="fil53" transform="translate(-3.947083,-3.86435)"/><polygon style="fill:#007dc0" id="polygon708" points="35.12 11.96 34.247 11.96 34.247 11.869 35.12 11.869" class="fil54" transform="translate(-3.947083,-3.86435)"/><polygon style="fill:#007fc2" id="polygon710" points="35.12 12.05 34.247 12.05 34.247 11.96 35.12 11.96" class="fil55" transform="translate(-3.947083,-3.86435)"/><polygon style="fill:#007fc2" id="polygon712" points="35.12 12.141 34.247 12.141 34.247 12.05 35.12 12.05" class="fil55" transform="translate(-3.947083,-3.86435)"/><polygon style="fill:#0080c3" id="polygon714" points="35.12 12.232 34.247 12.232 34.247 12.141 35.12 12.141" class="fil56" transform="translate(-3.947083,-3.86435)"/><polygon style="fill:#0080c3" id="polygon716" points="35.12 12.323 34.247 12.323 34.247 12.232 35.12 12.232" class="fil56" transform="translate(-3.947083,-3.86435)"/><polygon style="fill:#0081c4" id="polygon718" points="35.12 12.414 34.247 12.414 34.247 12.323 35.12 12.323" class="fil57" transform="translate(-3.947083,-3.86435)"/><polygon style="fill:#0081c4" id="polygon720" points="35.12 12.505 34.247 12.505 34.247 12.414 35.12 12.414" class="fil57" transform="translate(-3.947083,-3.86435)"/><polygon style="fill:#0082c6" id="polygon722" points="35.12 12.596 34.247 12.596 34.247 12.505 35.12 12.505" class="fil58" transform="translate(-3.947083,-3.86435)"/><polygon style="fill:#0083c7" id="polygon724" points="35.12 12.687 34.247 12.687 34.247 12.596 35.12 12.596" class="fil59" transform="translate(-3.947083,-3.86435)"/><polygon style="fill:#0083c7" id="polygon726" points="35.12 12.778 34.247 12.778 34.247 12.687 35.12 12.687" class="fil59" transform="translate(-3.947083,-3.86435)"/><polygon style="fill:#0085c8" id="polygon728" points="35.12 12.869 34.247 12.869 34.247 12.778 35.12 12.778" class="fil60" transform="translate(-3.947083,-3.86435)"/><polygon style="fill:#0085c9" id="polygon730" points="35.12 12.96 34.247 12.96 34.247 12.869 35.12 12.869" class="fil61" transform="translate(-3.947083,-3.86435)"/><polygon style="fill:#0085c9" id="polygon732" points="35.12 13.051 34.247 13.051 34.247 12.96 35.12 12.96" class="fil61" transform="translate(-3.947083,-3.86435)"/><polygon style="fill:#0087cb" id="polygon734" points="35.12 13.142 34.247 13.142 34.247 13.051 35.12 13.051" class="fil62" transform="translate(-3.947083,-3.86435)"/><polygon style="fill:#0087cb" id="polygon736" points="35.12 13.233 34.247 13.233 34.247 13.142 35.12 13.142" class="fil62" transform="translate(-3.947083,-3.86435)"/><polygon style="fill:#08c" id="polygon738" points="35.12 13.324 34.247 13.324 34.247 13.233 35.12 13.233" class="fil63" transform="translate(-3.947083,-3.86435)"/><polygon style="fill:#08c" id="polygon740" points="35.12 13.415 34.247 13.415 34.247 13.324 35.12 13.324" class="fil63" transform="translate(-3.947083,-3.86435)"/><polygon style="fill:#0089cd" id="polygon742" points="35.12 13.506 34.247 13.506 34.247 13.415 35.12 13.415" class="fil64" transform="translate(-3.947083,-3.86435)"/><polygon style="fill:#0089cd" id="polygon744" points="35.12 13.597 34.247 13.597 34.247 13.506 35.12 13.506" class="fil64" transform="translate(-3.947083,-3.86435)"/><polygon style="fill:#008ace" id="polygon746" points="35.12 13.688 34.247 13.688 34.247 13.597 35.12 13.597" class="fil65" transform="translate(-3.947083,-3.86435)"/><polygon style="fill:#008bd0" id="polygon748" points="35.12 13.779 34.247 13.779 34.247 13.688 35.12 13.688" class="fil66" transform="translate(-3.947083,-3.86435)"/><polygon style="fill:#008bd0" id="polygon750" points="35.12 13.87 34.247 13.87 34.247 13.779 35.12 13.779" class="fil66" transform="translate(-3.947083,-3.86435)"/><polygon style="fill:#008cd1" id="polygon752" points="35.12 13.96 34.247 13.96 34.247 13.87 35.12 13.87" class="fil67" transform="translate(-3.947083,-3.86435)"/><polygon style="fill:#008ed3" id="polygon754" points="35.12 14.052 34.247 14.052 34.247 13.96 35.12 13.96" class="fil68" transform="translate(-3.947083,-3.86435)"/><polygon style="fill:#008ed3" id="polygon756" points="35.12 14.143 34.247 14.143 34.247 14.052 35.12 14.052" class="fil68" transform="translate(-3.947083,-3.86435)"/><polygon style="fill:#008ed4" id="polygon758" points="35.12 14.233 34.247 14.233 34.247 14.143 35.12 14.143" class="fil69" transform="translate(-3.947083,-3.86435)"/><polygon style="fill:#008ed4" id="polygon760" points="35.12 14.324 34.247 14.324 34.247 14.233 35.12 14.233" class="fil69" transform="translate(-3.947083,-3.86435)"/><polygon style="fill:#008fd5" id="polygon762" points="35.12 14.415 34.247 14.415 34.247 14.324 35.12 14.324" class="fil70" transform="translate(-3.947083,-3.86435)"/><polygon style="fill:#008fd5" id="polygon764" points="35.12 14.506 34.247 14.506 34.247 14.415 35.12 14.415" class="fil70" transform="translate(-3.947083,-3.86435)"/><polygon style="fill:#0091d7" id="polygon766" points="35.12 14.597 34.247 14.597 34.247 14.506 35.12 14.506" class="fil71" transform="translate(-3.947083,-3.86435)"/><polygon style="fill:#0092d8" id="polygon768" points="23.518 14.675 34.247 14.675 34.247 14.597 35.12 14.597 35.12 14.688 23.518 14.688" class="fil72" transform="translate(-3.947083,-3.86435)"/><polygon style="fill:#0092d8" id="polygon770" points="35.12 14.779 23.518 14.779 23.518 14.688 35.12 14.688" class="fil72" transform="translate(-3.947083,-3.86435)"/><polygon style="fill:#0093da" id="polygon772" points="35.12 14.87 23.518 14.87 23.518 14.779 35.12 14.779" class="fil73" transform="translate(-3.947083,-3.86435)"/><polygon style="fill:#0093da" id="polygon774" points="35.12 14.961 23.518 14.961 23.518 14.87 35.12 14.87" class="fil73" transform="translate(-3.947083,-3.86435)"/><polygon style="fill:#0094db" id="polygon776" points="35.12 15.052 23.518 15.052 23.518 14.961 35.12 14.961" class="fil74" transform="translate(-3.947083,-3.86435)"/><polygon style="fill:#0095dd" id="polygon778" points="35.12 15.143 23.518 15.143 23.518 15.052 35.12 15.052" class="fil75" transform="translate(-3.947083,-3.86435)"/><polygon style="fill:#0095dd" id="polygon780" points="35.12 15.234 23.518 15.234 23.518 15.143 35.12 15.143" class="fil75" transform="translate(-3.947083,-3.86435)"/><polygon style="fill:#0096de" id="polygon782" points="35.12 15.325 23.518 15.325 23.518 15.234 35.12 15.234" class="fil76" transform="translate(-3.947083,-3.86435)"/><polygon style="fill:#0096de" id="polygon784" points="35.12 15.416 23.518 15.416 23.518 15.325 35.12 15.325" class="fil76" transform="translate(-3.947083,-3.86435)"/><polygon style="fill:#0098df" id="polygon786" points="35.12 15.507 23.518 15.507 23.518 15.416 35.12 15.416" class="fil77" transform="translate(-3.947083,-3.86435)"/><path style="fill:#000" id="path788" d="m 15.685517,15.69185 v 4.09465 h 0.639577 v -3.70188 h 0.592038 c 0,0 0.429115,-0.0016 0.576577,0.191077 0.124615,0.163846 0.147462,0.459692 0.147462,0.659769 0,0.214846 -0.01315,0.545192 -0.0855,0.666231 -0.108808,0.184731 -0.287077,0.221538 -0.451385,0.221538 h -0.390577 v 0.363231 h 0.561231 c 0,0 0.506654,0.02227 0.725192,-0.1995 0.267115,-0.272885 0.334731,-0.637038 0.334731,-1.12523 0,-0.445038 -0.160846,-0.892385 -0.490269,-1.04354 C 17.572171,15.69185 17.080863,15.69185 17.080863,15.69185 h -1.39535 z" class="fil1"/><polygon style="fill:#000" id="polygon790" points="23.424 19.556 22.784 19.556 22.784 23.651 23.424 23.651" class="fil1" transform="translate(-3.947083,-3.86435)"/><polygon style="fill:#000" id="polygon792" points="27.321 25.219 27.851 25.219 29.784 20.51 29.192 20.51 28.35 22.805 27.566 20.51 26.823 20.51 27.992 23.575" class="fil1" transform="translate(-3.947083,-3.86435)"/><path style="fill:#000" id="path794" d="m 26.318517,19.76045 v -0.386538 c 0,0 0.675692,0.02608 0.816,0.02608 0.312346,0 0.467654,-0.06669 0.584538,-0.191654 0.06935,-0.07454 0.132346,-0.409615 0.132346,-0.527885 0,-0.12 -0.02227,-0.376731 -0.069,-0.480462 -0.048,-0.103615 -0.156692,-0.1995 -0.320423,-0.213 -0.115962,-0.01062 -0.297,-0.033 -0.506423,-0.0435 -0.295269,-0.01362 -0.490154,-0.168577 -0.584769,-0.277846 -0.09254,-0.111808 -0.217731,-0.277038 -0.217731,-0.789346 0,-0.510462 0.132231,-0.796038 0.264346,-0.929769 0.133154,-0.133615 0.327692,-0.191885 0.476192,-0.217962 0.170538,-0.03 0.4515,-0.03196 0.4515,-0.03196 l 0.894923,0.02677 v 0.386423 c 0,0 -0.653077,-0.02515 -0.793154,-0.02515 -0.312346,0 -0.405923,0.06577 -0.522808,0.191077 -0.06831,0.07569 -0.122192,0.281423 -0.122192,0.401077 0,0.117692 0.01396,0.357346 0.06023,0.461077 0.04661,0.103962 0.156231,0.1995 0.319038,0.213923 0.115962,0.0088 0.297115,0.03254 0.506654,0.04269 0.296654,0.01454 0.491192,0.167654 0.584538,0.278885 0.09358,0.111231 0.218769,0.345577 0.218769,0.855923 0,0.510462 -0.133154,0.875654 -0.265385,1.00731 -0.132115,0.134654 -0.326423,0.193731 -0.475154,0.218885 -0.171577,0.03104 -0.452423,0.03104 -0.452423,0.03104 l -0.979615,-0.02608 z" class="fil1"/><path style="fill:#000" id="path796" d="m 29.804917,16.08465 h -0.638538 v 3.00462 c 0,0 0.01535,0.274038 0.03058,0.369923 0.01627,0.09681 0.156692,0.327346 0.522692,0.327346 l 0.662077,-0.01454 v -0.3855 c 0,0 -0.180115,0.0135 -0.288,0.0135 -0.109615,0 -0.243,-0.0077 -0.265269,-0.193731 -0.02354,-0.183922 -0.02354,-0.405807 -0.02354,-0.405807 v -1.76919 h 0.721038 v -0.3855 h -0.721038 v -0.561115 z" class="fil1"/><polygon style="fill:#000" id="polygon798" points="40.557 20.51 39.918 20.51 39.918 23.651 40.557 23.651" class="fil1" transform="translate(-3.947083,-3.86435)"/><polygon style="fill:#000" id="polygon800" points="40.557 19.556 39.918 19.556 39.918 20.126 40.557 20.126" class="fil1" transform="translate(-3.947083,-3.86435)"/><path style="fill:#000" id="path802" d="m 38.629017,16.61955 c 0.435231,0 0.772385,0.09785 0.953538,0.244154 0.183,0.147231 0.407192,0.456231 0.407192,1.35185 0,0.895846 -0.224192,1.20485 -0.407192,1.353 -0.181154,0.146308 -0.518308,0.244154 -0.953538,0.244154 -0.435346,0 -0.771923,-0.09785 -0.953538,-0.244154 -0.182077,-0.148154 -0.406846,-0.457154 -0.406846,-1.353 0,-0.895615 0.224769,-1.20462 0.406846,-1.35185 0.181615,-0.146308 0.518192,-0.244154 0.953538,-0.244154 z m -0.437308,0.602538 c -0.08815,0.107538 -0.194769,0.336 -0.194769,0.993462 0,0.659538 0.106615,0.886154 0.194769,0.993692 0.08665,0.107538 0.247962,0.180231 0.457615,0.180231 0.209769,0 0.370385,-0.07269 0.459115,-0.180231 0.08769,-0.107538 0.195115,-0.334154 0.195115,-0.993692 0,-0.657462 -0.107423,-0.885923 -0.195115,-0.993462 -0.08873,-0.107538 -0.249346,-0.179308 -0.459115,-0.179308 -0.209654,0 -0.370962,0.07177 -0.457615,0.179308 z" class="fil1"/><path style="fill:#000" id="path804" d="m 41.313817,17.08785 0.626077,-0.02665 c 0.164769,0 0.356538,0.04454 0.45,0.162231 0.08758,0.111923 0.142385,0.244615 0.142385,0.459692 v 2.0985 h 0.639692 v -2.15088 c 0,-0.407308 -0.124962,-0.643038 -0.312923,-0.791308 -0.268154,-0.213 -0.747692,-0.193731 -0.747692,-0.193731 l -1.4325,0.02712 v 3.10881 h 0.634962 v -2.69377 z" class="fil1"/><path style="fill:#000" id="path806" d="m 34.700117,16.08465 h -0.640154 v 3.00462 c 0,0 0.01523,0.274038 0.0315,0.369923 0.01523,0.09681 0.154615,0.327346 0.521538,0.327346 l 0.662538,-0.01454 v -0.3855 c 0,0 -0.179308,0.0135 -0.288231,0.0135 -0.108346,0 -0.242077,-0.0077 -0.264808,-0.193731 -0.02238,-0.183923 -0.02238,-0.405808 -0.02238,-0.405808 v -1.76919 h 0.719769 v -0.3855 H 34.70012 v -0.561115 z" class="fil1"/><path style="fill:#000" id="path808" d="m 21.901117,17.68315 c 0,-0.215077 -0.05492,-0.347769 -0.142385,-0.459692 -0.09346,-0.117692 -0.286615,-0.162231 -0.450462,-0.162231 l -0.843,0.02665 v -0.415038 l 1.01481,-0.02712 c 0,0 0.480115,-0.01927 0.748385,0.193731 0.186346,0.148269 0.312,0.384 0.312,0.791308 v 2.12088 l -1.22504,0.02619 c 0,0 -0.555231,0.0028 -0.833885,-0.111462 -0.272654,-0.110423 -0.421154,-0.414577 -0.421154,-0.835846 0,-0.406846 0.125308,-0.644077 0.312231,-0.793269 0.2685,-0.212077 0.747346,-0.191654 0.747346,-0.191654 h 0.391615 v 0.363115 h -0.219692 c -0.163846,0 -0.332885,0.03 -0.426,0.147231 -0.0885,0.112385 -0.135231,0.208269 -0.135231,0.422308 0,0.281769 0.05492,0.407769 0.187154,0.503654 0.117,0.08515 0.326423,0.103615 0.561,0.103615 l 0.422308,-0.02619 v -1.67619 z" class="fil1"/><path style="fill:#000" id="path810" d="m 32.676017,17.68315 c 0,-0.215077 -0.054,-0.347769 -0.141462,-0.459692 -0.0945,-0.117692 -0.286731,-0.162231 -0.450346,-0.162231 l -0.842192,0.02665 v -0.415038 l 1.01285,-0.02712 c 0,0 0.480115,-0.01927 0.7485,0.193731 0.187038,0.148269 0.311308,0.384 0.311308,0.791308 v 2.12088 l -1.22342,0.02619 c 0,0 -0.555231,0.0028 -0.835038,-0.111462 -0.2715,-0.110423 -0.420923,-0.414577 -0.420923,-0.835846 0,-0.406846 0.126,-0.644077 0.312,-0.793269 0.268615,-0.212077 0.748615,-0.191654 0.748615,-0.191654 h 0.390462 v 0.363115 h -0.219577 c -0.162808,0 -0.333462,0.03 -0.426231,0.147231 -0.08746,0.112385 -0.135115,0.208269 -0.135115,0.422308 0,0.281769 0.05596,0.407769 0.187154,0.503654 0.116885,0.08515 0.327346,0.103615 0.561231,0.103615 l 0.422192,-0.02619 v -1.67619 z" class="fil1"/><path style="fill:#000" id="path812" d="m 44.330317,19.81075 c 0.166615,0 0.323538,-0.06496 0.441231,-0.182077 0.117577,-0.118154 0.183,-0.275077 0.183,-0.441577 0,-0.166731 -0.06542,-0.323654 -0.183,-0.441692 -0.117692,-0.116308 -0.274615,-0.181154 -0.441231,-0.181154 -0.342923,0 -0.623192,0.279 -0.623192,0.622846 0,0.1665 0.06346,0.323423 0.183,0.441577 0.117692,0.117115 0.273115,0.182077 0.440192,0.182077 z m -0.519115,-0.623654 c 0,-0.139615 0.05423,-0.269423 0.152077,-0.367154 0.09785,-0.09785 0.228577,-0.152192 0.367038,-0.152192 0.1395,0 0.269654,0.05435 0.367154,0.152192 0.09785,0.09773 0.152885,0.227538 0.152885,0.367154 0,0.285577 -0.233308,0.518077 -0.520038,0.518077 -0.138462,0 -0.269192,-0.05331 -0.367038,-0.151154 -0.09785,-0.09877 -0.152077,-0.228462 -0.152078,-0.366923 z" class="fil1"/><path style="fill:#000" id="path814" d="m 44.638417,19.47655 c -0.0097,-0.0039 -0.01604,-0.01362 -0.02042,-0.03012 -0.0029,-0.01165 -0.0059,-0.02804 -0.0059,-0.05319 l -0.0033,-0.08815 c -0.0018,-0.04258 -0.01015,-0.0735 -0.02515,-0.09392 -0.01015,-0.01269 -0.02423,-0.02331 -0.04223,-0.03288 0.02192,-0.01465 0.04027,-0.03104 0.05435,-0.05146 0.01638,-0.02711 0.02665,-0.06277 0.02665,-0.105577 0,-0.08215 -0.03439,-0.140423 -0.103154,-0.170308 -0.03485,-0.01558 -0.078,-0.02435 -0.132231,-0.02435 h -0.321923 v 0.695538 h 0.12 v -0.284769 h 0.189808 c 0.03404,0 0.06012,0.0038 0.07558,0.0097 0.02319,0.01246 0.03635,0.03681 0.03831,0.0735 l 0.0053,0.111462 c 9.23e-4,0.02712 0.0029,0.04454 0.0047,0.05527 0.0035,0.0096 0.0059,0.01927 0.0097,0.02608 l 0.005,0.0088 h 0.134077 v -0.04073 l -0.0091,-0.0048 z m -0.139615,-0.446538 c 0,0.03773 -0.01004,0.06496 -0.02896,0.07846 -0.02227,0.01558 -0.05285,0.02227 -0.09162,0.02227 h -0.193154 v -0.196615 h 0.205385 c 0.02712,0 0.05077,0.005 0.06715,0.01269 0.02873,0.01442 0.04119,0.04154 0.04119,0.08319 z" class="fil1"/><path style="fill:#000" id="path816" d="m 48.903817,16.22065 c 0.0087,0.472154 -0.01454,0.720577 -0.172962,0.956769 -0.139962,0.207346 -0.416885,0.396692 -1.02854,0.396692 l -0.758885,-0.02273 c -0.119654,0.002 -0.429577,0.03681 -0.576346,0.194654 -0.125769,0.135346 -0.135462,0.237 -0.148154,0.598269 v 1.05958 h 2.57965 v 0.519115 h -2.81977 l -0.135577,-9.23e-4 c -0.191769,0 -0.380192,-0.129808 -0.380192,-0.390346 v -0.79027 c 0.0135,-0.922962 0.07938,-1.05542 0.279923,-1.29762 0.138923,-0.167538 0.465808,-0.354462 0.862385,-0.374885 0.078,-0.0033 0.224769,-0.0135 0.430154,-0.0077 0.150115,0.0063 0.300231,0.01073 0.366,0.01165 0.351115,0.0039 0.479538,-0.06104 0.575308,-0.186923 0.109962,-0.141462 0.168577,-0.309 0.168577,-0.583038 0,-0.256731 -0.05227,-0.498808 -0.150115,-0.611077 -0.118615,-0.129923 -0.231923,-0.217038 -0.561692,-0.217038 -0.834,-0.002 -1.80785,0.01985 -1.80785,0.01985 V 15.00461 c 0,0 0.951692,-0.04062 1.92208,-0.05469 0.604385,-0.01073 0.9375,0.150115 1.10654,0.370962 0.178731,0.230538 0.241731,0.448385 0.249462,0.899769 z" class="fil1"/><path style="fill:#1f1a17" id="path818" d="m 68.336517,11.04565 c 0,-0.451269 0.340385,-0.791654 0.776769,-0.791654 0.432,0 0.771808,0.340385 0.771808,0.791654 0,0.459692 -0.339808,0.797192 -0.771808,0.797192 -0.436385,0 -0.776769,-0.3375 -0.776769,-0.797192 z m 0.776885,0.956423 c 0.519923,0 0.963462,-0.403269 0.963462,-0.956423 0,-0.546923 -0.443538,-0.950538 -0.963577,-0.950538 -0.524423,0 -0.968654,0.403615 -0.968654,0.950538 0,0.553154 0.444231,0.956423 0.968769,0.956423 z M 68.91171,11.121688 h 0.191885 l 0.2895,0.477115 h 0.187038 L 69.26721,11.114534 c 0.161192,-0.02042 0.285231,-0.106615 0.285231,-0.302885 0,-0.217269 -0.128769,-0.312923 -0.388385,-0.312923 h -0.418962 v 1.10008 h 0.166615 v -0.477115 z m 0,-0.141462 v -0.340385 h 0.227192 c 0.115731,0 0.239769,0.02538 0.239769,0.161538 0,0.168808 -0.126462,0.178846 -0.267923,0.178846 z" class="fil1"/></svg>