<svg xmlns="http://www.w3.org/2000/svg" xmlns:svg="http://www.w3.org/2000/svg" id="svg2" width="698.294" height="208.332" version="1.1" viewBox="0 0 197.074 58.796" xml:space="preserve" style="fill-rule:evenodd"><metadata id="metadata22"/><defs id="defs4"><style id="style6" type="text/css">.fil0{fill:#02abca}.fil1{fill:#8b8b8b;fill-rule:nonzero}</style></defs><g id="Capa_x0020_1" transform="translate(-5.8253889,-5.6213889)"><metadata id="CorelCorpID_0Corel-Layer"/><g id="_56610944"><path style="fill:#009ac7;fill-opacity:1;stroke:none" id="_56666168" d="m 165.011,25.954 c 0,13.4272 15.875,11.5068 15.875,2.1167 V 5.8457 h -15.875 z" class="fil0"/><path style="fill:#009ac7;fill-opacity:1;stroke:none" id="_56603080" d="m 143.139,40.0651 c 0,6.6341 4.5822,10.5833 11.2889,10.5833 h 38.1 c 5.6587,0 10.2306,-3.9072 10.2306,-9.525 V 13.254 c 0,-3.3857 -2.5233,-7.0555 -5.6444,-7.0555 h -8.8195 V 29.129 c 0,17.4161 -30.3389,17.282 -30.3389,0.3528 V 5.8457 h -6.7028 c -4.3638,0 -8.1139,2.7649 -8.1139,7.0555 z" class="fil0"/><path style="fill:#8b8b8b;fill-opacity:1;fill-rule:nonzero;stroke:none" id="_56604928" d="m 90.4019,12.4334 c 0,3.6214 3.0496,6.671 6.8616,6.671 4.0026,0 7.1475,-2.9544 7.1475,-6.671 0,-3.7167 -3.1449,-6.6709 -7.1475,-6.6709 -3.812,0 -6.8616,2.9542 -6.8616,6.6709 z" class="fil1"/><polygon style="fill:#8b8b8b;fill-opacity:1;fill-rule:nonzero;stroke:none" id="_56605920" points="91.546 25.68 91.546 63.895 103.363 63.895 103.363 25.68" class="fil1"/><path style="fill:#8b8b8b;fill-opacity:1;fill-rule:nonzero;stroke:none" id="_56605848" d="m 114.322,12.4334 c 0,3.6214 3.1449,6.671 6.9569,6.671 3.9072,0 7.0521,-2.9544 7.0521,-6.671 0,-3.7167 -3.1449,-6.6709 -7.0521,-6.6709 -3.812,0 -6.9569,2.9542 -6.9569,6.6709 z" class="fil1"/><polygon style="fill:#8b8b8b;fill-opacity:1;fill-rule:nonzero;stroke:none" id="_56607936" points="115.466 25.68 115.466 63.895 127.283 63.895 127.283 25.68" class="fil1"/><path style="fill:#8b8b8b;fill-opacity:1;fill-rule:nonzero;stroke:none" id="_56607472" d="M 72.7715,9.0026 62.4791,49.505 c 0,0 -7.9098,-30.4006 -9.244,-34.7845 -1.2389,-4.2884 -3.9073,-6.1944 -7.624,-6.1944 -3.8119,0 -6.385,1.906 -7.7193,6.1944 C 36.653,19.1044 28.7431,49.505 28.7431,49.505 L 18.3555,9.0026 H 5.9665 c 0,0 11.9125,43.1707 13.5326,48.2216 1.2388,3.9073 4.2885,7.0521 8.6722,7.0521 5.1461,0 7.5287,-3.7166 8.5769,-7.0521 1.1436,-3.4308 8.8629,-31.9254 8.8629,-31.9254 0,0 7.7192,28.4946 8.7676,31.9254 1.1436,3.3355 3.526,7.0521 8.577,7.0521 4.479,0 7.4333,-3.1448 8.7675,-7.0521 1.62,-5.0509 13.5326,-48.2216 13.5326,-48.2216 z" class="fil1"/></g></g></svg>