<svg xmlns="http://www.w3.org/2000/svg" xmlns:svg="http://www.w3.org/2000/svg" xmlns:xlink="http://www.w3.org/1999/xlink" id="svg3009" width="170.175" height="33.358" x="0" y="0" enable-background="new 6.934 -.14 175 36" version="1.1" viewBox="6.934 -0.14 170.175 33.358" xml:space="preserve"><metadata id="metadata3011"/><defs id="defs3013"><linearGradient id="linearGradient4002"><stop id="stop4004" offset="0" style="stop-color:#97ca43;stop-opacity:1"/><stop id="stop4006" offset="1" style="stop-color:#97ca43;stop-opacity:0"/></linearGradient><linearGradient id="linearGradient3992"><stop id="stop3994" offset="0" style="stop-color:#97ca43;stop-opacity:1"/><stop id="stop3996" offset="1" style="stop-color:#97ca43;stop-opacity:0"/></linearGradient><linearGradient id="linearGradient3909"><stop id="stop3911" offset="0" style="stop-color:#97ca43;stop-opacity:1"/><stop id="stop3913" offset="1" style="stop-color:#97ca43;stop-opacity:0"/></linearGradient><linearGradient id="linearGradient3864"><stop id="stop3866" offset="0" style="stop-color:#97c949;stop-opacity:1"/><stop id="stop3868" offset="1" style="stop-color:#97c949;stop-opacity:0"/></linearGradient><linearGradient id="linearGradient3079"><stop id="stop3081" offset="0" style="stop-color:#fff;stop-opacity:1"/><stop id="stop3083" offset="1" style="stop-color:#fff;stop-opacity:0"/></linearGradient><linearGradient id="linearGradient3037"><stop id="stop3039" offset="0" style="stop-color:#fff;stop-opacity:1"/><stop id="stop3041" offset="1" style="stop-color:#fff;stop-opacity:0"/></linearGradient><radialGradient id="radialGradient3043" cx="24.529" cy="11.821" r="14.35" fx="24.529" fy="11.821" gradientTransform="matrix(0,1.4985192,-1.279154,0,38.156167,-20.965255)" gradientUnits="userSpaceOnUse" xlink:href="#linearGradient3037"/><radialGradient id="radialGradient3051" cx="24.529" cy="11.821" r="14.35" fx="24.529" fy="11.821" gradientTransform="matrix(0,1.4985192,-1.279154,0,38.156167,-20.965255)" gradientUnits="userSpaceOnUse" xlink:href="#linearGradient3037"/><radialGradient id="radialGradient3053" cx="24.529" cy="11.821" r="14.35" fx="24.529" fy="11.821" gradientTransform="matrix(0,1.4985192,-1.279154,0,38.156167,-20.965255)" gradientUnits="userSpaceOnUse" xlink:href="#linearGradient3037"/><radialGradient id="radialGradient3061" cx="24.529" cy="11.821" r="14.35" fx="24.529" fy="11.821" gradientTransform="matrix(0,1.4985192,-1.279154,0,38.156167,-20.965255)" gradientUnits="userSpaceOnUse" xlink:href="#linearGradient3037"/><radialGradient id="radialGradient3063" cx="24.529" cy="11.821" r="14.35" fx="24.529" fy="11.821" gradientTransform="matrix(0,1.4985192,-1.279154,0,38.156167,-20.965255)" gradientUnits="userSpaceOnUse" xlink:href="#linearGradient3037"/><radialGradient id="radialGradient3065" cx="24.529" cy="11.821" r="14.35" fx="24.529" fy="11.821" gradientTransform="matrix(0,1.4985192,-1.279154,0,38.156167,-20.965255)" gradientUnits="userSpaceOnUse" xlink:href="#linearGradient3037"/><radialGradient id="radialGradient3085" cx="23.532" cy="17.843" r="14.35" fx="23.532" fy="17.843" gradientTransform="matrix(0,0.80572268,-1.0856049,0,42.902657,-1.1039015)" gradientUnits="userSpaceOnUse" xlink:href="#linearGradient3079"/><linearGradient id="linearGradient3870" x1="19.015" x2="22.068" y1="11.952" y2="7.745" gradientUnits="userSpaceOnUse" xlink:href="#linearGradient3864"/><linearGradient id="linearGradient3874" x1="19.015" x2="22.068" y1="11.952" y2="7.745" gradientTransform="matrix(-1,0,0,1,41.029427,-1.0729817)" gradientUnits="userSpaceOnUse" xlink:href="#linearGradient3864"/><linearGradient id="linearGradient3886" x1="19.015" x2="22.068" y1="11.952" y2="7.745" gradientUnits="userSpaceOnUse" xlink:href="#linearGradient3864"/><linearGradient id="linearGradient3896" x1="19.015" x2="22.068" y1="11.952" y2="7.745" gradientUnits="userSpaceOnUse" xlink:href="#linearGradient3864"/><linearGradient id="linearGradient3898" x1="19.015" x2="22.068" y1="11.952" y2="7.745" gradientUnits="userSpaceOnUse" xlink:href="#linearGradient3864"/><linearGradient id="linearGradient3915" x1="16.8" x2="10.85" y1="19.9" y2="16.867" gradientUnits="userSpaceOnUse" xlink:href="#linearGradient3909"/><linearGradient id="linearGradient3921" x1="16.158" x2="12.892" y1="20.512" y2="16.079" gradientUnits="userSpaceOnUse" xlink:href="#linearGradient3909"/><linearGradient id="linearGradient3929" x1="16.8" x2="10.85" y1="19.9" y2="16.867" gradientUnits="userSpaceOnUse" xlink:href="#linearGradient3909"/><linearGradient id="linearGradient3976" x1="16.158" x2="12.892" y1="20.512" y2="16.079" gradientUnits="userSpaceOnUse" xlink:href="#linearGradient3909"/><linearGradient id="linearGradient3978" x1="19.015" x2="22.068" y1="11.952" y2="7.745" gradientUnits="userSpaceOnUse" xlink:href="#linearGradient3864"/><linearGradient id="linearGradient3980" x1="19.015" x2="22.068" y1="11.952" y2="7.745" gradientTransform="translate(17.63776,-0.7229817)" gradientUnits="userSpaceOnUse" xlink:href="#linearGradient3864"/><linearGradient id="linearGradient3984" x1="16.158" x2="12.892" y1="20.512" y2="16.079" gradientTransform="translate(7.4294271,-1.1896484)" gradientUnits="userSpaceOnUse" xlink:href="#linearGradient3909"/><linearGradient id="linearGradient3998" x1="17.161" x2="13.206" y1="21.54" y2="16.9" gradientUnits="userSpaceOnUse" xlink:href="#linearGradient3992"/><linearGradient id="linearGradient4008" x1="19.663" x2="23.287" y1="13.09" y2="5.046" gradientUnits="userSpaceOnUse" xlink:href="#linearGradient4002"/><linearGradient id="linearGradient4041" x1="17.161" x2="13.206" y1="21.54" y2="16.9" gradientUnits="userSpaceOnUse" xlink:href="#linearGradient3992"/><linearGradient id="linearGradient4043" x1="17.551" x2="20.647" y1="12.031" y2="6.988" gradientUnits="userSpaceOnUse" xlink:href="#linearGradient4002"/><linearGradient id="linearGradient4045" x1="17.161" x2="13.206" y1="21.54" y2="16.9" gradientUnits="userSpaceOnUse" xlink:href="#linearGradient3992"/><linearGradient id="linearGradient4047" x1="19.663" x2="23.287" y1="13.09" y2="5.046" gradientUnits="userSpaceOnUse" xlink:href="#linearGradient4002"/><linearGradient id="linearGradient4148" x1="17.161" x2="13.206" y1="21.54" y2="16.9" gradientUnits="userSpaceOnUse" xlink:href="#linearGradient3992"/><linearGradient id="linearGradient4150" x1="19.663" x2="23.287" y1="13.09" y2="5.046" gradientUnits="userSpaceOnUse" xlink:href="#linearGradient4002"/><linearGradient id="linearGradient4152" x1="17.161" x2="13.206" y1="21.54" y2="16.9" gradientUnits="userSpaceOnUse" xlink:href="#linearGradient3992"/><linearGradient id="linearGradient4154" x1="17.551" x2="20.647" y1="12.031" y2="6.988" gradientUnits="userSpaceOnUse" xlink:href="#linearGradient4002"/><radialGradient id="radialGradient4156" cx="23.532" cy="17.843" r="14.35" fx="23.532" fy="17.843" gradientTransform="matrix(0,0.80572268,-1.0856049,0,42.902657,-1.1039015)" gradientUnits="userSpaceOnUse" xlink:href="#linearGradient3079"/><radialGradient id="radialGradient4158" cx="24.529" cy="11.821" r="14.35" fx="24.529" fy="11.821" gradientTransform="matrix(0,1.4985192,-1.279154,0,38.156167,-20.965255)" gradientUnits="userSpaceOnUse" xlink:href="#linearGradient3037"/><radialGradient id="radialGradient4187" cx="24.529" cy="11.821" r="14.35" fx="24.529" fy="11.821" gradientTransform="matrix(0,1.4985192,-1.279154,0,38.156167,-20.965255)" gradientUnits="userSpaceOnUse" xlink:href="#linearGradient3037"/><radialGradient id="radialGradient4189" cx="24.529" cy="11.821" r="14.35" fx="24.529" fy="11.821" gradientTransform="matrix(0,1.4985192,-1.279154,0,38.156167,-20.965255)" gradientUnits="userSpaceOnUse" xlink:href="#linearGradient3037"/><radialGradient id="radialGradient4191" cx="24.529" cy="11.821" r="14.35" fx="24.529" fy="11.821" gradientTransform="matrix(0,1.4985192,-1.279154,0,38.156167,-20.965255)" gradientUnits="userSpaceOnUse" xlink:href="#linearGradient3037"/><linearGradient id="linearGradient4193" x1="17.161" x2="13.206" y1="21.54" y2="16.9" gradientUnits="userSpaceOnUse" xlink:href="#linearGradient3992"/><linearGradient id="linearGradient4195" x1="19.663" x2="23.287" y1="13.09" y2="5.046" gradientUnits="userSpaceOnUse" xlink:href="#linearGradient4002"/><linearGradient id="linearGradient4197" x1="17.161" x2="13.206" y1="21.54" y2="16.9" gradientUnits="userSpaceOnUse" xlink:href="#linearGradient3992"/><linearGradient id="linearGradient4199" x1="17.551" x2="20.647" y1="12.031" y2="6.988" gradientUnits="userSpaceOnUse" xlink:href="#linearGradient4002"/></defs><g id="g4201" transform="translate(-4.3385042,-2.0378732)"><polygon style="fill:#6b6b6b" id="polygon3015" points="149.363 7.899 147.308 7.896 147.308 28.615 149.613 28.615 149.613 11.974 161.896 28.629 164.207 28.631 164.207 7.912 161.898 7.912 161.898 24.93"/><path style="fill:#6b6b6b" id="path3017" d="m 135.3237,7.431152 c -5.82617,0 -9.89844,4.456055 -9.89844,10.83496 0,6.38916 4.07227,10.84424 9.89844,10.84424 5.82031,0 9.87891,-4.455078 9.87891,-10.84424 0,-6.3789 -4.0586,-10.83496 -9.8789,-10.83496 m 0,19.48389 c -4.4375,0 -7.54883,-3.556641 -7.54883,-8.648926 0,-5.087891 3.11133,-8.64502 7.54883,-8.64502 4.43164,0 7.52343,3.557129 7.52343,8.64502 1e-4,5.09229 -3.0917,8.64893 -7.5234,8.64893"/><polygon style="fill:#6b6b6b" id="polygon3019" points="180.529 18.938 180.529 16.909 169.123 16.909 169.123 9.925 181.304 9.925 181.304 7.898 166.798 7.898 166.798 28.633 181.447 28.633 181.447 26.604 169.123 26.604 169.123 18.938"/><polygon style="fill:#177d3e" id="polygon3021" points="105.689 28.65 102.96 28.65 110.925 17.786 103.652 7.912 106.379 7.912 112.308 15.966 118.232 7.912 120.957 7.912 113.687 17.786 121.656 28.65 118.931 28.65 112.308 19.658"/><path style="fill:#177d3e" id="path3023" d="m 82.4668,18.57031 c -0.432617,-0.368652 -0.902344,-0.653809 -1.358398,-0.864746 1.504883,-0.816895 2.492188,-2.36084 2.492188,-4.151856 0,-1.327148 -0.489258,-5.6411131 -6.741211,-5.6411131 h -8.420898 v 8.9399411 h -2.805664 c -0.365234,0.474121 -1.19043,1.612793 -1.505859,2.081055 h 4.311523 v 9.714844 l 8.420898,9.76e-4 c 4.561523,0 7.396484,-2.317383 7.396484,-6.053711 0,-1.6328 -0.61719,-3.02098 -1.78906,-4.02538 m -11.7002,-8.49463 h 6.092773 c 1.650391,0 4.411133,0.410645 4.411133,3.295898 0,2.181152 -1.609375,3.480957 -4.411133,3.480957 h -6.092773 z m 6.09278,16.41065 H 70.76661 v -7.549805 h 6.092773 c 2.310547,0 5.074219,0.638184 5.074219,3.614258 -10e-6,3.42187 -3.17774,3.93554 -5.07422,3.93554"/><path style="fill:#177d3e" id="path3025" d="m 95.20898,7.432617 c -5.824219,0 -9.895508,4.456055 -9.895508,10.83496 0,6.388672 4.071289,10.8418 9.895508,10.8418 5.82031,0 9.87891,-4.453125 9.87891,-10.8418 0,-6.37891 -4.0586,-10.83496 -9.878924,-10.83496 m 0,19.4834 c -4.4375,0 -7.545898,-3.556641 -7.545898,-8.648438 0,-5.087891 3.108398,-8.643555 7.545898,-8.643555 4.430664,0 7.523434,3.555664 7.523434,8.643555 0,5.0918 -3.092746,8.64844 -7.523416,8.64844"/><polygon style="fill:#177d3e" id="polygon3027" points="66.608 7.912 63.883 7.912 57.953 15.968 52.028 7.912 49.311 7.912 56.58 17.785 48.609 28.648 51.34 28.648 57.957 19.658 64.578 28.648 67.306 28.648 59.334 17.785"/><g id="g3055" transform="translate(-1.2833333,0.93333333)"><g id="g4049"><g id="g4160" transform="translate(-2.125,35.625)"><ellipse id="path3033" cx="23.333" cy="17.392" rx="14.35" ry="14.758" transform="matrix(1.1755978,0,0,1.1301272,4.1196441,-37.63611)" style="fill:#666;fill-opacity:1;stroke:none"/><ellipse style="fill:url(#radialGradient4187);fill-opacity:1;stroke:none" id="path3035" cx="23.333" cy="17.392" rx="14.35" ry="14.758" transform="matrix(1.1755978,0,0,1.1301272,4.1196441,-37.63611)"/><ellipse id="path3045" cx="23.333" cy="17.392" rx="14.35" ry="14.758" transform="matrix(1.1755978,0,0,1.1301272,4.1196441,-37.63611)" style="fill:url(#radialGradient4189);fill-opacity:1;stroke:none"/><ellipse style="fill:url(#radialGradient4191);fill-opacity:1;stroke:none" id="path3047" cx="23.333" cy="17.392" rx="14.35" ry="14.758" transform="matrix(1.1755978,0,0,1.1301272,4.1196441,-37.63611)"/><g id="g4126" transform="translate(3.7995054e-7,0.05177686)"><g id="g4010" transform="matrix(1.0075011,0,0,1.0008426,-0.23709798,0.02715301)"><g id="g3951"><g id="g3917" transform="translate(1.334375,-34.927083)"><path style="fill:#00a54d;fill-opacity:1;stroke:none" id="path3900" d="m 17.75,10.65625 c -1.847688,2.256035 -9.5926641,11.425091 -8.90625,17.625 0.4783172,0.610018 1.0047273,1.180327 1.5625,1.71875 -0.08129,-4.745696 5.4515,-9.824588 9.769368,-13.658449 z" transform="translate(8.2169271,-1.0729817)"/></g><g id="g3988" transform="translate(1.334375,-34.927083)" style="fill:#97ca43;fill-opacity:1"><path id="path3990" d="m 17.75,10.65625 c -1.847688,2.256035 -9.5926641,11.425091 -8.90625,17.625 0.4783172,0.610018 1.0047273,1.180327 1.5625,1.71875 -0.08129,-4.745696 5.4515,-9.824588 9.769368,-13.658449 z" transform="translate(8.2169271,-1.0729817)" style="fill:url(#linearGradient4193);fill-opacity:1;stroke:none"/></g><g id="g3888" transform="translate(1.196189,-34.89572)"><g id="g3876"><path id="path3089" d="m 13.34375,3.75 c -0.965665,0.5849225 -1.862933,1.2722918 -2.6875,2.03125 2.656255,0.5079752 5.32084,2.8624365 6.78125,4.8125 1.272411,2.001434 1.963367,3.836737 2.861547,5.731248 0.608132,-0.518349 1.226492,-1.046358 1.896265,-1.586717 l -0.0039,-8.2265622 C 20.212403,5.2739256 16.941625,3.6447553 13.375,3.75 c -0.0076,0.00461 -0.02361,-0.00463 -0.03125,0 z" transform="translate(8.2169271,-1.0729817)" style="fill:#02a74d;fill-opacity:1;stroke:none"/><path style="fill:url(#linearGradient4195);fill-opacity:1;stroke:none" id="path4000" d="m 13.34375,3.75 c -0.965665,0.5849225 -1.862933,1.2722918 -2.6875,2.03125 2.656255,0.5079752 5.32084,2.8624365 6.78125,4.8125 1.272411,2.001434 1.963367,3.836737 2.861547,5.731248 0.608132,-0.518349 1.226492,-1.046358 1.896265,-1.586717 l -0.0039,-8.2265622 C 20.212403,5.2739256 16.941625,3.6447553 13.375,3.75 c -0.0076,0.00461 -0.02361,-0.00463 -0.03125,0 z" transform="translate(8.2169271,-1.0729817)"/></g></g></g></g><g id="g4021" transform="matrix(-1.0041673,0,0,1.0016853,63.252358,0.05430602)"><g id="g4023"><g id="g4025" transform="translate(1.334375,-34.927083)"><path id="path4027" d="m 17.75,10.65625 c -1.847688,2.256035 -9.5926641,11.425091 -8.90625,17.625 0.4783172,0.610018 1.0047273,1.180327 1.5625,1.71875 -0.08129,-4.745696 5.4515,-9.824588 9.769368,-13.658449 z" transform="translate(8.2169271,-1.0729817)" style="fill:#00a54d;fill-opacity:1;stroke:none"/></g><g style="fill:#97ca43;fill-opacity:1" id="g4029" transform="translate(1.334375,-34.927083)"><path style="fill:url(#linearGradient4197);fill-opacity:1;stroke:none" id="path4031" d="m 17.75,10.65625 c -1.847688,2.256035 -9.5926641,11.425091 -8.90625,17.625 0.4783172,0.610018 1.0047273,1.180327 1.5625,1.71875 -0.08129,-4.745696 5.4515,-9.824588 9.769368,-13.658449 z" transform="translate(8.2169271,-1.0729817)"/></g><g id="g4033" transform="translate(1.196189,-34.89572)"><g id="g4035"><path style="fill:#02a74d;fill-opacity:1;stroke:none" id="path4037" d="m 13.34375,3.75 c -0.965665,0.5849225 -1.862933,1.2722918 -2.6875,2.03125 2.656255,0.5079752 5.32084,2.8624365 6.78125,4.8125 1.272411,2.001434 1.963367,3.836737 2.861547,5.731248 0.608132,-0.518349 1.226492,-1.046358 1.896265,-1.586717 l -0.0039,-8.2265622 C 20.212403,5.2739256 16.941625,3.6447553 13.375,3.75 c -0.0076,0.00461 -0.02361,-0.00463 -0.03125,0 z" transform="translate(8.2169271,-1.0729817)"/><path id="path4039" d="m 13.34375,3.75 c -0.965665,0.5849225 -1.862933,1.2722918 -2.6875,2.03125 2.656255,0.5079752 5.32084,2.8624365 6.78125,4.8125 1.272411,2.001434 1.963367,3.836737 2.861547,5.731248 0.608132,-0.518349 1.226492,-1.046358 1.896265,-1.586717 l -0.0039,-8.2265622 C 20.212403,5.2739256 16.941625,3.6447553 13.375,3.75 c -0.0076,0.00461 -0.02361,-0.00463 -0.03125,0 z" transform="translate(8.2169271,-1.0729817)" style="fill:url(#linearGradient4199);fill-opacity:1;stroke:none"/></g></g></g></g></g></g></g></g></g></svg>